<svg id="Layer_5" enable-background="new 0 0 64 64" height="512" viewBox="0 0 64 64" width="512" xmlns="http://www.w3.org/2000/svg"><g><g><g><path d="m44 14v10c0 2.53-1.18 4.79-3.02 6.26-.93-.52-1.93-.95-2.98-1.26v-3-1-5l1.41-1.41c.38-.38.59-.89.59-1.42v-.17c0-1.1-.9-2-2-2v-2c0-.83-.34-1.58-.88-2.12s-1.29-.88-2.12-.88h-7-2c-2.21 0-4-1.79-4-4 0-1.1.45-2.1 1.17-2.83.73-.72 1.73-1.17 2.83-1.17h6c6.63 0 12 5.37 12 12z" fill="#656d78"/></g><g><path d="m43.75 40h-1.75c-1.1 0-2 .9-2 2v4 12h-4-10l-.89-9.82c-.07-.78-.24-1.56-.49-2.31l-.03-.1-.23.6c-.41 1.09-1.14 2-2.05 2.64-.91.63-2.01.99-3.18.99-2.46 0-4.62-1.6-5.34-3.94l-.93-3.02.14-.04 4.94-2.97 1.33 2.16c.27-3.09 1.46-5.94 3.33-8.24 1.88-2.31 4.42-4.06 7.4-4.95l1.62 7 1.38 6h2l1.38-6 1.62-7c1.05.31 2.05.74 2.98 1.26 1.39.76 2.63 1.74 3.7 2.88 1.79 1.9 3.08 4.26 3.69 6.86z" fill="#ff826e"/></g><g><path d="m36.38 36-1.38 6h-2l-1.38-6z" fill="#e6e9ed"/></g><g><path d="m40 58h4c0 2.21-1.79 4-4 4h-4-10c-2.21 0-4-1.79-4-4h4 10z" fill="#969faa"/></g><g><path d="m62 58v2c0 1.1-.9 2-2 2h-20c2.21 0 4-1.79 4-4z" fill="#aab2bd"/></g><g><path d="m62 42v16h-18-4v-12-4c0-1.1.9-2 2-2h1.75 4.62 11.63c1.1 0 2 .9 2 2z" fill="#ccd1d9"/></g><g><circle cx="51" cy="47" fill="#69d6f4" r="3"/></g><g><path d="m17.94 40.03-4.94 2.97-.14.04-1.86-6.04h-3c-.55 0-1.05-.22-1.41-.59-.37-.36-.59-.86-.59-1.41 0-1.1.9-2 2-2h1l.1-.1c.58-.58 1.36-.9 2.18-.9 1.07 0 2.06.56 2.62 1.47z" fill="#f0d0b4"/></g><g><path d="m38 15c1.1 0 2 .9 2 2v.17c0 .53-.21 1.04-.59 1.42l-1.41 1.41v5 1 3l-1.62 7h-4.76l-1.62-7v-3.45c-.68.19-1.51.33-2.53.4-.05 0-.1 0-.15 0-.82 0-1.58-.47-1.95-1.22-.24-.47-.3-1.01-.17-1.52l.8-3.21-3-1c0-3 3-9 3-9h2 7c.83 0 1.58.34 2.12.88s.88 1.29.88 2.12z" fill="#f0d0b4"/></g><g><path d="m18 18v4l-1.48.54c-.04.09-.07.19-.11.28l.66 1.42-2.83 2.83-1.42-.66c-.09.04-.19.07-.28.11l-.54 1.48h-4l-.54-1.48c-.09-.04-.19-.07-.28-.11l-1.42.66-2.83-2.83.66-1.42c-.04-.09-.07-.19-.11-.28l-1.48-.54v-4l1.48-.54c.04-.09.07-.19.11-.28l-.66-1.42 2.83-2.83 1.42.66c.09-.04.19-.07.28-.11l.54-1.48h4l.54 1.48c.09.04.19.07.28.11l1.42-.66 2.83 2.83-.66 1.42c.04.09.07.19.11.28zm-4 2c0-2.21-1.79-4-4-4s-4 1.79-4 4 1.79 4 4 4 4-1.79 4-4z" fill="#fcd770"/></g></g><g><path d="m51 51c2.206 0 4-1.794 4-4s-1.794-4-4-4-4 1.794-4 4 1.794 4 4 4zm0-6c1.103 0 2 .897 2 2s-.897 2-2 2-2-.897-2-2 .897-2 2-2z"/><path d="m60 39h-10.862c-1.066-3.674-3.403-6.823-6.524-8.914 1.523-1.651 2.386-3.799 2.386-6.086v-10c0-7.168-5.832-13-13-13h-6c-2.757 0-5 2.243-5 5 0 2.244 1.496 4.125 3.535 4.756-.898 1.965-2.535 5.871-2.535 8.244v.721l2.806.935-.577 2.308c-.186.742-.1 1.528.242 2.213.549 1.098 1.65 1.779 2.85 1.779.074 0 .148-.002.223-.008.534-.037 1.008-.101 1.457-.174v1.498c-5.133 1.797-8.925 5.981-10.257 11.151l-3.988-6.482c-.739-1.196-2.071-1.941-3.479-1.941-.994 0-1.935.353-2.678 1h-.599c-1.654 0-3 1.346-3 3s1.346 3 3 3h2.262l2.568 8.349c.857 2.782 3.387 4.651 6.297 4.651 1.964 0 3.787-.898 5.019-2.347l.759 8.347h-3.905v1c0 2.757 2.243 5 5 5h10 4 20c1.654 0 3-1.346 3-3v-18c0-1.654-1.346-3-3-3zm1 3v15h-16-4v-11-4c0-.551.448-1 1-1h18c.552 0 1 .449 1 1zm-27-19-1.998-.046c-.002.017-.229 1.693-4.599 2-.489.03-.927-.237-1.144-.669-.129-.259-.161-.555-.092-.835l1.026-4.105-3.141-1.047c.295-2.159 1.745-5.555 2.572-7.297h1.376v-2.001h-2c-1.654 0-3-1.346-3-3s1.346-3 3-3h6c6.065 0 11 4.935 11 11v10c0 1.929-.786 3.734-2.165 5.053-.592-.295-1.204-.556-1.835-.778v-2.275-1-4.586l1.121-1.121c.567-.566.879-1.32.879-2.122v-.171c0-1.304-.836-2.416-2-2.829v-1.171c0-2.206-1.794-4-4-4v2c1.103 0 2 .897 2 2v3h1c.552 0 1 .449 1 1v.171c0 .267-.104.519-.293.708l-1.707 1.707v5.414 1 2.885l-1.411 6.115h-3.177l-1.412-6.115v-2.619c2.882-1.078 3-2.991 3-3.266zm1.127 14-.923 4h-.408l-.923-4zm-27.127-1c-.552 0-1-.449-1-1s.448-1 1-1h1.416l.388-.39c.394-.393.917-.61 1.474-.61.718 0 1.397.38 1.774.991l3.511 5.705-3.112 1.867-1.713-5.563zm18.104 12.094c-.078-.863-.257-1.717-.531-2.539l-.098-.294c-.316-.946-.475-1.929-.475-3.018 0-2.469.961-4.79 2.707-6.536l-1.414-1.414c-2.123 2.124-3.293 4.947-3.293 8.045 0 1.154.182 2.295.531 3.396l-.108.289c-.667 1.781-2.394 2.977-4.296 2.977-2.026 0-3.789-1.302-4.385-3.239l-.686-2.229 3.554-2.133 2.538 4.124 1.703-1.048-1.543-2.508c.573-5.313 4.019-9.771 8.966-11.664l2.93 12.697h3.592l2.929-12.692c3.922 1.512 6.981 4.715 8.317 8.692h-2.549c-.535-1.77-1.471-3.391-2.786-4.707l-1.414 1.414c.938.939 1.656 2.061 2.118 3.293h-.411c-1.654 0-3 1.346-3 3v4 11h-3-9.087zm9.896 12.906h-10c-1.304 0-2.416-.836-2.829-2h12.829 6.829c-.413 1.164-1.525 2-2.829 2zm24 0h-16.026c.442-.584.773-1.257.924-2h16.102v1c0 .551-.448 1-1 1z"/><path d="m28.293 11.293 1.414 1.414c1.075-1.075 2.293-2.293 2.293-5.707h-2c0 2.586-.753 3.339-1.707 4.293z"/><path d="m5.546 28.274 1.273-.595.48 1.321h5.402l.479-1.321 1.273.595 3.82-3.82-.596-1.273 1.323-.48v-5.401l-1.321-.48.596-1.273-3.82-3.82-1.273.595-.481-1.322h-5.402l-.479 1.321-1.273-.595-3.82 3.82.596 1.273-1.323.48v5.401l1.321.48-.596 1.273zm-2.546-9.573.823-.299.443-.204.425-1.031-.56-1.198 1.838-1.837 1.201.562 1.077-.447.454-1.247h2.598l.3.823.212.447 1.019.423 1.201-.562 1.838 1.837-.56 1.198.445 1.081 1.246.454v2.599l-.823.299-.443.204-.425 1.031.56 1.198-1.838 1.837-1.201-.562-1.077.447-.454 1.246h-2.598l-.3-.823-.212-.447-1.019-.423-1.2.562-1.838-1.837.56-1.198-.445-1.081-1.247-.454z"/><path d="m10 25c2.757 0 5-2.243 5-5s-2.243-5-5-5-5 2.243-5 5 2.243 5 5 5zm0-8c1.654 0 3 1.346 3 3s-1.346 3-3 3-3-1.346-3-3 1.346-3 3-3z"/></g></g></svg>