<?xml version="1.0" encoding="utf-8"?>
<!-- Generator: Adobe Illustrator 16.0.0, SVG Export Plug-In . SVG Version: 6.00 Build 0)  -->
<!DOCTYPE svg PUBLIC "-//W3C//DTD SVG 1.1//EN" "http://www.w3.org/Graphics/SVG/1.1/DTD/svg11.dtd">
<svg version="1.1" id="Layer_1" xmlns="http://www.w3.org/2000/svg" xmlns:xlink="http://www.w3.org/1999/xlink" x="0px" y="0px"
	 width="200px" height="200px" viewBox="0 0 200 200" enable-background="new 0 0 200 200" xml:space="preserve">
<path fill="#33BFD6" d="M34.361,75.608c-1.215,0-0.607-0.608-4.254,0.607c-3.647,1.216-7.293,3.647-9.725,6.686
	c-1.823,2.431-2.431,3.646-3.646,6.686c-0.607,1.823-1.215,4.862-1.215,6.685c0,1.216,0,1.216,0,2.431
	c0.608,6.078,3.646,10.333,7.293,13.979c7.293,7.293,21.272,7.293,27.957,0.607c0.608-0.607,1.216-0.607,1.216-1.216
	c9.116-9.116,8.509-23.703-1.216-31.604C46.517,76.823,39.832,74.392,34.361,75.608z"/>
<path fill="#3EB64F" d="M97.569,75.608c-1.215,0-1.215-0.608-4.254,0.607c-2.431,0.608-5.47,2.431-6.685,3.647
	c-0.608,0.607-1.216,1.215-1.823,1.215c-4.254,4.254-7.293,12.155-6.078,18.233c1.823,11.548,11.547,20.057,24.311,18.841
	c14.586-1.823,23.702-19.449,15.802-32.211c-3.039-4.254-6.686-7.901-12.155-9.725C104.862,75.608,102.431,75,100,75
	C97.569,75,98.785,75,97.569,75.608z"/>
<path fill="#E74143" d="M160.169,75.608c0,0-1.216,0-1.823,0c-4.862,1.215-9.117,3.646-11.548,7.293
	c-3.646,4.254-6.078,10.332-4.862,16.41c1.216,6.686,2.432,9.116,7.293,13.979c9.725,9.116,29.173,6.078,34.035-9.725l1.216-6.685
	c0-5.47-3.039-13.371-7.294-17.017C172.324,76.823,166.246,74.392,160.169,75.608z"/>
</svg>
