<?xml version="1.0" encoding="utf-8"?>
<!-- Generator: Adobe Illustrator 16.0.0, SVG Export Plug-In . SVG Version: 6.00 Build 0)  -->
<!DOCTYPE svg PUBLIC "-//W3C//DTD SVG 1.1//EN" "http://www.w3.org/Graphics/SVG/1.1/DTD/svg11.dtd">
<svg version="1.1" id="ccdb08d7-40f3-45f2-8ef6-c6a673654779"
	 xmlns="http://www.w3.org/2000/svg" xmlns:xlink="http://www.w3.org/1999/xlink" x="0px" y="0px" width="1167.61px"
	 height="862.869px" viewBox="0 0 1167.61 862.869" enable-background="new 0 0 1167.61 862.869" xml:space="preserve">
<title>doctors</title>
<path opacity="0.1" fill="#508EEB" enable-background="new    " d="M76.42,338.199H177.9v138.33H83.84
	c-0.24,1.431-0.48,2.851-0.75,4.28h94.81v111.54c-0.16,0-0.32-0.12-0.47-0.18c-2.667-1.061-5.333-2.184-8-3.37
	c-0.57-0.261-1.13-0.53-1.71-0.78c-2.667-1.26-5.333-2.594-8-4c-0.93-0.49-1.86-1-2.77-1.521c-14.805-8.261-28.26-18.734-39.9-31.06
	c-0.35-0.33-0.67-0.689-1-1c-1.62-1.76-3.21-3.54-4.75-5.36c-0.58-0.67-1.14-1.35-1.71-2c-1.82-2.22-3.58-4.52-5.28-6.829
	c-0.26-0.351-0.5-0.69-0.75-1c-6.964-9.637-12.739-20.079-17.2-31.101c-0.14-0.33-0.27-0.689-0.4-1c-1.38-3.5-2.63-7.05-3.71-10.67
	c-0.46-1.51-0.91-3-1.29-4.57c-0.14-0.449-0.25-0.909-0.37-1.359c-5.62-22.15-6.27-45.17-6.27-68.08c0-2.667,0-5.334,0-8
	c0.08-9.354,0.19-18.697,0.33-28.03c0.053-2.4,0.104-4.81,0.15-7.229c0.14-6.127,0.34-12.268,0.6-18.421
	c0.06-1.699,0.14-3.409,0.23-5.1c0.04-0.979,0.09-1.96,0.15-2.94C75.96,345.21,76.173,341.693,76.42,338.199z"/>
<path opacity="0.1" fill="#508EEB" enable-background="new    " d="M177.9,184.18h-55.67c9.054-14.155,18.941-27.759,29.61-40.74
	c8.28-10.16,17-20.06,26.06-29.6V184.18z"/>
<path opacity="0.1" fill="#508EEB" enable-background="new    " d="M177.9,188.44v145.48H76.74c0-0.42,0.06-0.851,0.1-1.271
	c0.09-1.149,0.18-2.29,0.28-3.439c0.1-1.341,0.23-2.681,0.36-4c0.13-1.32,0.26-2.921,0.42-4.37c0.16-1.45,0.29-2.92,0.45-4.37
	c0.16-1.45,0.32-2.9,0.5-4.34c0.18-1.44,0.34-2.9,0.54-4.341c0.15-1.189,0.3-2.39,0.47-3.59c0.23-1.689,0.47-3.38,0.72-5.06
	c0-0.26,0.08-0.51,0.12-0.76c1.828-12.297,4.311-24.488,7.44-36.521c3.286-12.619,7.48-24.985,12.55-37
	c5.387-12.588,11.698-24.762,18.88-36.42H177.9z"/>
<path opacity="0.1" fill="#508EEB" enable-background="new    " d="M202.14,338.199v138.33H418.9v-138.33H202.14z M202.14,480.81
	v118.8c1.24,0.25,2.46,0.5,3.69,0.71c1.65,0.32,3.31,0.61,5,0.86l1,0.14c0.66,0.11,1.33,0.2,2,0.28c1.67,0.24,3.34,0.42,5,0.58
	c0.78,0.08,1.59,0.14,2.38,0.21l1.93,0.14l0,0c1.05,0.08,2.09,0.141,3.13,0.181c0.64,0,1.28,0.05,1.93,0.069c0.65,0.021,1,0,1.52,0
	h1.89c0.86,0,1.72,0,2.57,0h1.1c0.86,0,1.72,0,2.57-0.08h0.05c0.6,0,1.19,0,1.79-0.069c0.17,0.01,0.34,0.01,0.51,0
	c0.5,0,1,0,1.48-0.061c0.113-0.009,0.227-0.009,0.34,0c1.11-0.069,2.23-0.16,3.36-0.26s2.2-0.22,3.33-0.34l2.27-0.28
	c9.276-1.299,18.449-3.25,27.45-5.84c20.23-5.641,40-13.53,60.22-19.3c26.12-7.45,55-11.12,80.24-2.05v-93.69H202.14z M418.9,184.18
	V0.02c-23.729-0.261-47.394,2.512-70.42,8.25c-54.89,13.79-104.18,43.7-146.34,81.9v94h10.91v4.27h-10.91v145.48H418.9V188.44
	H257.68v-4.279L418.9,184.18z M697.379,121.97c-13.58-0.48-27.08-4.77-39.299-11.42c-23.34-12.69-42-32.311-62.84-48.85
	c-43.3-34.471-97-55.28-152.09-60.44v182.92h309.409l0.771-0.81L697.379,121.97z M725.571,116.97l29.889,32.81V108.34
	c-10.059,1.27-18.82,4.22-29.889,8.59V116.97z M755.459,629.11v-148.3h-63.74c-0.16-0.63-0.34-1.271-0.539-1.91
	c0.189,0.64,0.359,1.28,0.529,1.91H443.15v107.24c2.359,1.75,4.689,3.6,7,5.46l0,0c2.493,2.04,4.97,4.104,7.43,6.189l2.479,2.051
	c1.19,1,2.4,2,3.601,2.949c2.406,1.94,4.83,3.86,7.27,5.761c1.221,0.96,2.447,1.903,3.681,2.829
	c19.532,14.928,40.134,28.401,61.64,40.311c4.82,2.689,9.69,5.28,14.59,7.81c3.26,1.681,6.544,3.327,9.851,4.94
	c4.96,2.42,9.96,4.753,15,7c7.56,3.37,0,0,0,0c46.466,20.857,95.601,35.168,146,42.52c11.188,1.647,22.424,2.947,33.711,3.9v-90.68
	h1L755.459,629.11z M443.15,188.44v145.48h312.309V188.44H443.15z M443.15,338.18v138.35h312.309v-138.33L443.15,338.18z
	 M779.7,108.14v46.3l38.141-41.87C805.2,110.484,792.487,109.007,779.7,108.14z M779.7,338.199v138.33h303.75v-138.33H779.7z
	 M1082.379,640.079l1.07-159.27H779.7v240.57c19.566,0.813,39.16,0.576,58.701-0.71l0,0h0.34c9.332-0.601,18.623-1.454,27.869-2.561
	h0.211c49.344-5.744,97.592-18.632,143.229-38.26 M1142.049,360.92c-1.152-2.667-2.336-5.334-3.549-8c-2.26-5-4.641-9.86-7.1-14.71
	H1107.7V476.53h59.91C1167.559,437.35,1157.639,397.35,1142.049,360.92L1142.049,360.92z M1107.7,480.81v137
	c16.871-16.17,31.141-34.68,41.4-55.84c12.35-25.49,18-53.07,18.471-81.17L1107.7,480.81z M1107.7,297.89v36h21.48
	C1122.668,321.515,1115.499,309.497,1107.7,297.89z M901.7,135.29c-1.58-0.61-3.17-1.221-4.76-1.801
	c-16.764-6.195-33.898-11.346-51.301-15.42L787.26,182.13l0,0l-1.141,1.229l0.75,0.811h207.781
	C965.709,164.256,934.508,147.848,901.7,135.29z M1000.75,188.44H783.959l-4.26,3.891v141.59h37.35l0,0l0,0h266.4V265.32
	C1059.362,236.19,1031.557,210.342,1000.75,188.44z"/>
<path opacity="0.1" fill="#508EEB" enable-background="new    " d="M177.9,261.83v72.09H76.74c0-0.42,0.06-0.851,0.1-1.271
	c0.09-1.149,0.18-2.29,0.28-3.439c0.1-1.341,0.23-2.681,0.36-4c0.13-1.32,0.26-2.921,0.42-4.37c0.16-1.45,0.29-2.92,0.45-4.37
	c0.16-1.45,0.32-2.9,0.5-4.34c0.18-1.44,0.34-2.9,0.54-4.341c0.15-1.189,0.3-2.39,0.47-3.59c0.23-1.689,0.47-3.38,0.72-5.06
	c0-0.26,0.08-0.51,0.12-0.76c1.828-12.297,4.311-24.488,7.44-36.521L177.9,261.83z"/>
<path opacity="0.1" fill="#508EEB" enable-background="new    " d="M76.42,338.199H177.9v138.33H83.84
	c-0.24,1.431-0.48,2.851-0.75,4.28h94.81v111.54c-0.16,0-0.32-0.12-0.47-0.18c-2.667-1.061-5.333-2.184-8-3.37
	c-0.57-0.261-1.13-0.53-1.71-0.78c-2.667-1.26-5.333-2.594-8-4c-0.93-0.49-1.86-1-2.77-1.521c-14.805-8.261-28.26-18.734-39.9-31.06
	c-0.35-0.33-0.67-0.689-1-1c-1.62-1.76-3.21-3.54-4.75-5.36c-0.58-0.67-1.14-1.35-1.71-2c-1.82-2.22-3.58-4.52-5.28-6.829
	c-0.26-0.351-0.5-0.69-0.75-1c-6.964-9.637-12.739-20.079-17.2-31.101c-0.14-0.33-0.27-0.689-0.4-1c-1.38-3.5-2.63-7.05-3.71-10.67
	c-0.46-1.51-0.91-3-1.29-4.57c-0.14-0.449-0.25-0.909-0.37-1.359c-5.62-22.15-6.27-45.17-6.27-68.08c0-2.667,0-5.334,0-8
	c0.08-9.354,0.19-18.697,0.33-28.03c0.053-2.4,0.104-4.81,0.15-7.229c0.14-6.127,0.34-12.268,0.6-18.421
	c0.06-1.699,0.14-3.409,0.23-5.1c0.04-0.979,0.09-1.96,0.15-2.94C75.96,345.21,76.173,341.693,76.42,338.199z"/>
<polygon opacity="0.1" fill="#508EEB" enable-background="new    " points="278.44,209.28 278.44,333.92 202.13,333.92 
	202.13,209.28 213.01,209.28 213.01,167.08 257.67,167.08 257.67,209.28 "/>
<rect x="202.13" y="338.19" opacity="0.1" fill="#508EEB" enable-background="new    " width="76.3" height="138.33"/>
<path opacity="0.1" fill="#508EEB" enable-background="new    " d="M202.14,480.81h76.3v115c-9,2.591-18.173,4.539-27.45,5.83
	c-0.76,0.11-1.51,0.2-2.27,0.28c-1.12,0.13-2.23,0.25-3.34,0.35l-3.35,0.27h-0.34l-1.48,0.08h-0.51c-0.6,0-1.19,0.07-1.79,0.08
	h-0.05c-0.86,0-1.71,0.061-2.57,0.08h-1.1c-0.85,0-1.7,0-2.57,0h-1.88h-1.53c-0.65,0-1.29,0-1.94-0.08
	c-1.027-0.04-2.067-0.1-3.12-0.18l0,0l-1.93-0.14c-0.8-0.061-1.6-0.141-2.39-0.221c-1.68-0.146-3.347-0.336-5-0.569l-2-0.28l-1-0.14
	c-1.67-0.25-3.33-0.53-5-0.851c-1.24-0.22-2.46-0.47-3.69-0.729V480.81z"/>
<rect x="692.53" y="194.56" opacity="0.1" fill="#508EEB" enable-background="new    " width="62.92" height="139.35"/>
<polygon opacity="0.1" fill="#508EEB" enable-background="new    " points="755.459,338.19 755.459,476.53 443.15,476.53 
	443.15,416.86 609.5,416.86 609.5,452.06 692.53,452.06 692.53,338.19 "/>
<path opacity="0.1" fill="#508EEB" enable-background="new    " d="M756.45,629.14c-0.33,0-0.66,0-1-0.061v90.75
	c-11.273-0.926-22.506-2.223-33.699-3.89c-50.418-7.35-99.572-21.652-146.06-42.5c-13.421-6.054-26.567-12.65-39.44-19.79
	c-21.499-11.915-42.098-25.388-61.63-40.31c-4.92-3.761-9.767-7.604-14.54-11.53c-3.311-2.74-6.59-5.54-9.93-8.25
	c-2.301-1.87-4.631-3.72-7-5.48V480.81h248.559c-0.18-0.64-0.34-1.271-0.52-1.91c0.189,0.64,0.369,1.271,0.529,1.91h63.74v148.26
	C755.79,629.079,756.12,629.11,756.45,629.14z"/>
<path opacity="0.1" fill="#508EEB" enable-background="new    " d="M919.559,184.18h-41v-12.74h18.371v-37.95
	c1.594,0.587,3.18,1.188,4.76,1.801v36.149h17.859L919.559,184.18z"/>
<path opacity="0.1" fill="#508EEB" enable-background="new    " d="M1018.35,333.92H817.049c0.02,0.004,0.041,0.004,0.061,0h-0.09
	H779.7V194.57h10.58v103h48.34v-61h39.951v-48.13h41v48.16h39.93v61h58.859L1018.35,333.92z"/>
<path opacity="0.1" fill="#508EEB" enable-background="new    " d="M779.7,338.199v138.33h238.66v-138.33H779.7z M1083.11,639.35
	l0.34-109.5h-65.09v-49H779.7v240.53c19.566,0.813,39.16,0.576,58.701-0.71l0,0h0.34c9.332-0.601,18.623-1.454,27.869-2.561h0.211
	c49.344-5.744,97.592-18.632,143.229-38.26"/>
<path opacity="0.1" fill="#508EEB" enable-background="new    " d="M1111.901,480.81h55.67c-0.48,28.09-6.121,55.68-18.471,81.16
	c-10.26,21.17-24.529,39.68-41.4,55.85v-88h4.201V480.81z"/>
<path opacity="0.1" fill="#508EEB" enable-background="new    " d="M1167.61,476.53h-55.709V360.92h30.148
	C1157.639,397.35,1167.559,437.35,1167.61,476.53z"/>
<rect x="721.75" y="233.3" opacity="0.1" fill="#508EEB" enable-background="new    " width="33.709" height="43.689"/>
<rect x="721.75" y="323.86" opacity="0.1" fill="#508EEB" enable-background="new    " width="33.709" height="10.061"/>
<rect x="721.75" y="338.19" opacity="0.1" fill="#508EEB" enable-background="new    " width="33.709" height="29.35"/>
<rect x="721.75" y="414.42" opacity="0.1" fill="#508EEB" enable-background="new    " width="33.709" height="43.689"/>
<rect x="721.75" y="504.98" opacity="0.1" fill="#508EEB" enable-background="new    " width="33.709" height="43.69"/>
<path opacity="0.1" fill="#508EEB" enable-background="new    " d="M755.459,629.07c0.33,0,0.66,0,1,0.07c-0.33,0-0.66,0-1-0.061
	v10.15H721.75v-43.69h33.709V629.07z"/>
<path opacity="0.1" fill="#508EEB" enable-background="new    " d="M755.459,686.09v33.739c-11.279-0.926-22.516-2.223-33.709-3.89
	v-29.85H755.459z"/>
<rect x="443.15" y="473.32" opacity="0.1" fill="#508EEB" enable-background="new    " width="144.469" height="3.21"/>
<rect x="443.15" y="480.8" opacity="0.1" fill="#508EEB" enable-background="new    " width="144.469" height="12.3"/>
<rect x="443.15" y="533.42" opacity="0.1" fill="#508EEB" enable-background="new    " width="144.469" height="19.779"/>
<path opacity="0.1" fill="#508EEB" enable-background="new    " d="M587.62,593.52v19.78h-113c-4.92-3.747-9.767-7.594-14.54-11.54
	c-3.32-2.73-6.6-5.53-9.93-8.24H587.62z"/>
<path opacity="0.1" fill="#508EEB" enable-background="new    " d="M587.62,653.61v19.83H575.69
	c-13.421-6.054-26.567-12.65-39.44-19.79L587.62,653.61z"/>
<rect x="838.401" y="351.6" opacity="0.1" fill="#508EEB" enable-background="new    " width="28.439" height="28.439"/>
<rect x="222.62" y="219.09" opacity="0.1" fill="#508EEB" enable-background="new    " width="28.44" height="28.439"/>
<rect x="222.62" y="285.15" opacity="0.1" fill="#508EEB" enable-background="new    " width="28.44" height="28.44"/>
<rect x="222.62" y="351.21" opacity="0.1" fill="#508EEB" enable-background="new    " width="28.44" height="28.439"/>
<rect x="222.62" y="417.26" opacity="0.1" fill="#508EEB" enable-background="new    " width="28.44" height="28.439"/>
<rect x="222.62" y="483.32" opacity="0.1" fill="#508EEB" enable-background="new    " width="28.44" height="28.44"/>
<rect x="222.62" y="549.38" opacity="0.1" fill="#508EEB" enable-background="new    " width="28.44" height="28.439"/>
<rect x="946.969" y="351.6" opacity="0.1" fill="#508EEB" enable-background="new    " width="28.441" height="28.439"/>
<rect x="838.401" y="421.75" opacity="0.1" fill="#508EEB" enable-background="new    " width="28.439" height="28.439"/>
<rect x="946.969" y="421.75" opacity="0.1" fill="#508EEB" enable-background="new    " width="28.441" height="28.439"/>
<rect x="838.401" y="491.89" opacity="0.1" fill="#508EEB" enable-background="new    " width="28.439" height="28.439"/>
<rect x="946.969" y="491.89" opacity="0.1" fill="#508EEB" enable-background="new    " width="28.441" height="28.439"/>
<rect x="838.401" y="562.039" opacity="0.1" fill="#508EEB" enable-background="new    " width="28.439" height="28.44"/>
<rect x="946.969" y="562.039" opacity="0.1" fill="#508EEB" enable-background="new    " width="28.441" height="28.44"/>
<rect x="838.401" y="632.19" opacity="0.1" fill="#508EEB" enable-background="new    " width="28.439" height="28.44"/>
<rect x="946.969" y="632.19" opacity="0.1" fill="#508EEB" enable-background="new    " width="28.441" height="28.44"/>
<polygon opacity="0.1" fill="#508EEB" enable-background="new    " points="838.401,720.67 838.401,702.329 866.831,702.329 
	866.831,718.06 "/>
<path opacity="0.1" fill="#508EEB" enable-background="new    " d="M80.58,298.35v16.27h97.32v-16.27H80.58z M90.27,313.6h-8v-14.22
	h8V313.6z M99.96,313.6h-8v-14.22h8V313.6z M109.63,313.6h-8v-14.22h8V313.6z M119.32,313.6h-8v-14.22h8V313.6z M129,313.6h-8
	v-14.22h8V313.6z M138.69,313.6h-8v-14.22h8V313.6z M148.38,313.6h-8v-14.22h8V313.6z M158.06,313.6h-8v-14.22h8V313.6z
	 M167.74,313.6h-8v-14.22h8V313.6z M177.43,313.6h-8v-14.22h8V313.6z"/>
<path opacity="0.1" fill="#508EEB" enable-background="new    " d="M80.58,345.71v16.27h97.32v-16.27H80.58z M90.27,360.96h-8
	V346.74h8V360.96z M99.96,360.96h-8V346.74h8V360.96z M109.63,360.96h-8V346.74h8V360.96z M119.32,360.96h-8V346.74h8V360.96z
	 M129,360.96h-8V346.74h8V360.96z M138.69,360.96h-8V346.74h8V360.96z M148.38,360.96h-8V346.74h8V360.96z M158.06,360.96h-8V346.74
	h8V360.96z M167.74,360.96h-8V346.74h8V360.96z M177.43,360.96h-8V346.74h8V360.96z"/>
<path opacity="0.1" fill="#508EEB" enable-background="new    " d="M80.58,393.079v16.261h97.32v-16.261H80.58z M90.27,408.31h-8
	v-14.22h8V408.31z M99.96,408.31h-8v-14.22h8V408.31z M109.63,408.31h-8v-14.22h8V408.31z M119.32,408.31h-8v-14.22h8V408.31z
	 M129,408.31h-8v-14.22h8V408.31z M138.69,408.31h-8v-14.22h8V408.31z M148.38,408.31h-8v-14.22h8V408.31z M158.06,408.31h-8v-14.22
	h8V408.31z M167.74,408.31h-8v-14.22h8V408.31z M177.43,408.31h-8v-14.22h8V408.31z"/>
<path opacity="0.1" fill="#508EEB" enable-background="new    " d="M80.58,440.44v16.26h97.32v-16.26H80.58z M90.27,455.68h-8
	v-14.24h8V455.68z M99.96,455.68h-8v-14.24h8V455.68z M109.63,455.68h-8v-14.24h8V455.68z M119.32,455.68h-8v-14.24h8V455.68z
	 M129,455.68h-8v-14.24h8V455.68z M138.69,455.68h-8v-14.24h8V455.68z M148.38,455.68h-8v-14.24h8V455.68z M158.06,455.68h-8v-14.24
	h8V455.68z M167.74,455.68h-8v-14.24h8V455.68z M177.43,455.68h-8v-14.24h8V455.68z"/>
<path opacity="0.1" fill="#508EEB" enable-background="new    " d="M81.05,487.78c0.38,1.54,0.83,3.061,1.29,4.57v-3.54h8v14.21
	h-4.29c0.12,0.34,0.25,0.69,0.39,1h91.5v-16.24H81.05z M100.05,503.02h-8v-14.21h8V503.02z M109.72,503.02h-8v-14.21h8V503.02z
	 M119.41,503.02h-8v-14.21h8V503.02z M129.09,503.02h-8v-14.21h8V503.02z M138.78,503.02h-8v-14.21h8V503.02z M148.47,503.02h-8
	v-14.21h8V503.02z M158.15,503.02h-8v-14.21h8V503.02z M167.83,503.02h-8v-14.21h8V503.02z M177.52,503.02h-8v-14.21h8V503.02z"/>
<path opacity="0.1" fill="#508EEB" enable-background="new    " d="M103.59,535.14c0.26,0.32,0.5,0.68,0.75,1h5.29v6.83l1.71,2
	v-8.87h8v14.34h-3.29c0.32,0.33,0.63,0.68,1,1h60.83v-16.3H103.59z M129.05,550.44h-8v-14.28h8V550.44z M138.74,550.44h-8v-14.28h8
	V550.44z M148.43,550.44h-8v-14.28h8V550.44z M158.11,550.44h-8v-14.28h8V550.44z M167.79,550.44h-8v-14.28h8V550.44z
	 M177.48,550.44h-8v-14.28h8V550.44z"/>
<path opacity="0.1" fill="#508EEB" enable-background="new    " d="M156.98,582.5c0.92,0.52,1.85,1,2.78,1.51v-0.5h8v4.51
	c0.58,0.25,1.13,0.52,1.7,0.78v-5.29h8v8.66c0.152,0.068,0.309,0.125,0.47,0.17v-9.84H156.98z"/>
<path opacity="0.1" fill="#508EEB" enable-background="new    " d="M817.049,333.92L817.049,333.92L817.049,333.92z M755.45,629.07
	L755.45,629.07h1H755.45z M691.18,478.9c0.189,0.64,0.359,1.28,0.529,1.91l0,0C691.559,480.18,691.379,479.539,691.18,478.9z
	 M817.049,333.92L817.049,333.92L817.049,333.92z M213.05,184.18v4.26h44.67v-4.279L213.05,184.18z M755.459,629.07L755.459,629.07
	h1H755.459z M691.18,478.9c0.189,0.64,0.359,1.28,0.529,1.91l0,0C691.559,480.18,691.379,479.539,691.18,478.9z M817.049,333.92
	L817.049,333.92L817.049,333.92z M755.45,629.07L755.45,629.07h1H755.45z M691.18,478.9c0.189,0.64,0.359,1.28,0.529,1.91l0,0
	C691.559,480.18,691.379,479.539,691.18,478.9z"/>
<ellipse opacity="0.1" fill="#508EEB" enable-background="new    " cx="879.43" cy="847.219" rx="97.439" ry="15.65"/>
<ellipse opacity="0.1" fill="#508EEB" enable-background="new    " cx="439.97" cy="831.57" rx="97.44" ry="15.65"/>
<linearGradient id="SVGID_1_" gradientUnits="userSpaceOnUse" x1="686.4751" y1="-143.8547" x2="686.4751" y2="433.8474" gradientTransform="matrix(1 0 0 -1 -220.9404 691.7095)">
	<stop  offset="0" style="stop-color:#808080;stop-opacity:0.25"/>
	<stop  offset="0.54" style="stop-color:#808080;stop-opacity:0.12"/>
	<stop  offset="1" style="stop-color:#808080;stop-opacity:0.1"/>
</linearGradient>
<path fill="url(#SVGID_1_)" d="M552.15,417.75c-0.024-0.1-0.076-0.19-0.15-0.261c-1.49-1.47-20.49-28.34-20.49-28.34
	s-1-3-2.62-6.899c0.52-0.673,0.909-1.436,1.15-2.25c0.087-0.346,0.151-0.696,0.19-1.051c0-0.109,0.079-0.199,0.109-0.31
	c0.348-1.356,0.313-2.782-0.1-4.12c-0.111,0.343-0.248,0.678-0.41,1c-0.376-1.165-0.879-2.285-1.5-3.34
	c-2.521-4.34-6.12-8-8.771-12.23c-4.013-6.572-5.607-14.338-4.51-21.96c0,0.391,0,0.79,0,1.181c0.101-1.512,0.301-3.016,0.601-4.5
	c0.418-1.69,0.977-3.343,1.67-4.94c2.38-5.45,6.229-10.2,8.569-15.67c0.785-1.845,1.382-3.765,1.78-5.73
	c0.824-3.282,1.125-6.674,0.89-10.05c0,0.8-0.13,1.601-0.25,2.391c-0.253-8.117-3.53-15.846-9.189-21.67
	c-8.17-8.21-19.9-11.4-31.12-13.08c-4.715-0.551-9.218-2.269-13.1-5c-4.311-2.79-9.881-3.46-14.92-2.851
	c-5.793,0.627-11.176,3.288-15.19,7.511c-5.33,5.859-7.64,14.159-13.86,19.1c-3.77,3-8.55,4.4-12.939,6.44
	c-4.39,2.04-8.54,5-9.95,9.38c0,0,0-0.061,0-0.091v0.25l-0.06,0.16c-1.46,5.181,1.36,10.45,2.83,15.62c1.53,5.35,1.63,11,1.71,16.53
	c0.11,6.76,0.21,13.53,0.1,20.3c-0.05,2.66-0.14,5.35-0.34,8c-2.367,0.716-4.666,1.639-6.87,2.76
	c-2.24,1.46-10.62,10.51-10.62,10.51l-16.39,62.62l0.22,0.25l-0.22,0.851l0.83-0.19c2.32,2.5,9.25,9.62,16.73,14.061l0.7,12.279
	c0,0,0.84,12.32,12.17,17.41c0.26,4.271,1.07,21.61-2.68,28.48c-2.597,5.019-3.818,10.636-3.54,16.279c0,0,1.31,10.421-0.18,15.9
	c-0.871,3.662-0.936,7.47-0.19,11.16l0,0c0,0,0,1.21,0,3.29c0,11.09,0.13,46.63,0,50.649c-0.19,4.75,0,75,0,75
	s-0.93,35.11-3.91,44.62c-2.98,9.511-2.23,41-2.23,41s-1.87,37.511,4.74,44.91c0,0.33-0.06,0.67-0.07,1c0,0.15,0,0.32,0,0.47
	c-0.08,2.851,0.47,5.88,2.92,6.811c5,1.92,11.61,7.68,12.86,9.33c1.25,1.649,8.521,5.76,18,4.66
	c5.938-0.668,11.915-0.942,17.891-0.82l0,0c0,0,3.739-0.68,2.529-5.33l0,0l0,0c-0.779-2.9-3.7-7.36-5.779-10.29
	c0.38,0.1,0.75,0.18,1.1,0.25l0.36,0.07h0.279c0.153,0.009,0.307,0.009,0.46,0h0.2c0.187,0.015,0.374,0.015,0.561,0l0,0
	c2.51-0.24,11.869,4.12,13.539,7c1.671,2.88,7.561,5.069,12,5.62c2.641,0.319,9.301-0.221,14.891-0.94
	c2.814-0.291,5.604-0.799,8.34-1.52c1.32-0.5,1.6-2.101,1.22-3.9l0,0c-0.448-2.286-1.67-4.349-3.46-5.84
	c-1.62-1.15-3.76-4.181-5.34-6.66l-0.42-0.67c2.79-2.66,7.83-11.36,9.36-13.16c1.859-2.19-3-82.28-3-82.28V676.76l7.449-38
	l5.21-20.11l4.471-30.36c0,0,7.819-35.46,5.41-38.939l0,0c0-0.07-2-36.58-4.101-45.35c-0.91-3.91-0.68-12.71-0.14-21.271
	c1.151-1.144,1.541-2.85,1-4.38c-0.149-0.513-0.344-1.012-0.58-1.49c0-0.149,0-0.31,0-0.46c4.319-1.987,8.834-3.522,13.47-4.58
	c7.45-1.46,5.59-5.3,5.59-5.3s1.681-3.29,2.79-5.3c1.11-2.01,0.19-19.75,0-21.21c-0.069-0.59-0.529-3.851-1.06-7.55
	c2.39-1.7,5.5-3.811,8.89-5.811C554.13,422.829,552.68,418.8,552.15,417.75z M454.95,671.28c0,0-5.59,14.26-3.351,17.91
	c2.24,3.65-0.369,17.2-0.369,17.2l-1.87,20.11c0,0-5.21,37.3-3.351,46.069c1.46,6.88,2,27.431,2.17,36l0,0
	c-0.128,0.05-0.251,0.11-0.37,0.181l-0.25,0.13c0.86-3.37,0.5-10.19-3.77-23.91l-0.36-56.67c0,0-0.659-65.46,4.511-72.78
	s7-19.75,7-19.75s-1.12,17.93-1.851,22.68C452.36,663.199,454.95,671.28,454.95,671.28z M444.54,812.14
	c-0.05,0.12-0.11,0.24-0.15,0.35l-0.279-0.359C444.253,812.144,444.396,812.147,444.54,812.14z"/>
<path fill="#FFFFFF" d="M501.55,834.6c-2.89,1.109-18.56,3-22.939,2.47s-10.181-2.75-11.83-5.649c-1.65-2.9-10.9-7.28-13.38-7
	c-1.017,0.03-2.031-0.112-3-0.421c-1.711-0.518-3.383-1.159-5-1.92c-0.227-1.261-0.188-2.554,0.109-3.8
	c0.058-0.251,0.131-0.498,0.221-0.74c0.583-1.641,1.791-2.984,3.359-3.739l0.36-0.17c0.693-0.3,1.418-0.521,2.16-0.66
	c7.859-1.51,40.29,1.52,40.29,1.52s0.909,1.63,2.159,3.65c1.561,2.5,3.681,5.55,5.28,6.7c1.772,1.515,2.976,3.589,3.41,5.88
	C503.13,832.49,502.85,834.11,501.55,834.6z"/>
<path opacity="0.1" enable-background="new    " d="M501.55,834.6c-2.89,1.109-18.55,3-22.93,2.47s-10.18-2.76-11.84-5.649
	c-1.66-2.891-10.891-7.28-13.37-7c-2.48,0.279-8-2.341-8-2.341s-0.86-4,1.64-6.729l5,3.55c0,0,13.38,4.15,15.86,8
	c2.479,3.85,7,6,13.53,6.39c4.88,0.32,16.09-1.58,21.34-2.529C503.13,832.49,502.86,834.11,501.55,834.6z"/>
<path fill="#FFFFFF" d="M453.68,839.699c-5.898-0.114-11.798,0.163-17.66,0.83c-9.39,1.101-16.56-3-17.81-4.689
	c-1.25-1.69-7.72-7.4-12.69-9.4c-2.43-0.939-3-4-2.89-6.86c0-0.149,0-0.319,0-0.47c0.092-1.812,0.36-3.61,0.8-5.37l38.91-0.83
	l3.37,4.57l0.52,0.7l2.051,2.79c0,0,0.93,1.22,2.149,3c2.061,3,4.94,7.43,5.71,10.359l0,0
	C457.37,839.02,453.68,839.699,453.68,839.699z"/>
<path opacity="0.1" enable-background="new    " d="M453.68,839.699c-5.898-0.114-11.798,0.163-17.66,0.83
	c-9.38,1.101-16.56-3-17.799-4.689c-1.24-1.69-7.73-7.45-12.7-9.38c-2.43-0.94-3-4-2.89-6.86c2.78,0.65,8.62,2.31,10.91,5.2
	c3,3.859,8.37,10.35,16,10.76c6.16,0.33,21.16-0.771,26.66-1.21C457.38,839.02,453.68,839.699,453.68,839.699z"/>
<path opacity="0.1" enable-background="new    " d="M449.05,813.76c-0.45,3.34-1.84,4.24-2.84,4.439
	c-0.244,0.048-0.495,0.048-0.74,0c-0.131-0.009-0.262-0.029-0.39-0.06c0,0-34.94,7.72-42,1.47c-0.179-0.16-0.347-0.334-0.5-0.52
	c0.092-1.813,0.36-3.61,0.8-5.37l38.91-0.83l3.37,4.569c0.583-1.64,1.791-2.984,3.359-3.739L449.05,813.76z"/>
<path opacity="0.1" enable-background="new    " d="M494.05,818.1c-0.78,0.859-1.43,1.35-1.84,1.18c-1.84-0.74-16.92-3.31-21.71-1.1
	s-21,0.359-21,0.359s0-1.92-0.09-5c0.693-0.299,1.418-0.521,2.16-0.659c7.859-1.511,40.29,1.52,40.29,1.52
	S492.81,816.079,494.05,818.1z"/>
<path fill="#508EEB" d="M516.87,591.9l-4.42,30.54l-5.141,20.24l-7.359,38.26v40.5c0,0,4.78,80.58,2.939,82.78
	c-1.84,2.2-8.829,14.729-10.67,14c-1.84-0.73-16.92-3.311-21.71-1.11s-21,0.37-21,0.37s-0.37-31.27-2.21-40.1
	s3.311-46.36,3.311-46.36l1.84-20.229c0,0,2.58-13.62,0.37-17.301c-2.21-3.68,3.31-18,3.31-18s-2.57-8.109-1.83-12.89
	s1.83-22.81,1.83-22.81s-1.83,12.52-6.939,19.869c-5.11,7.351-4.46,73.221-4.46,73.221l0.359,57c9.21,30.18,0,27.229,0,27.229
	s-34.94,7.73-42,1.47c-7.06-6.26-5.04-45.659-5.04-45.659s-0.73-31.641,2.21-41.2c2.94-9.561,3.87-44.891,3.87-44.891
	s-0.19-70.649,0-75.42c0.14-4,0-39.81,0-51c0-2.08,0-3.31,0-3.31l4.22-10.48l50-6.26h23.92c0,0,36,8.46,39.721,12.11
	c0.079,0.061,0.146,0.135,0.2,0.22C524.6,556.22,516.87,591.9,516.87,591.9z"/>
<path opacity="0.1" enable-background="new    " d="M456.16,752.32c0,0,11,26.49,16.189,28.33
	C477.54,782.49,456.16,752.32,456.16,752.32z"/>
<path opacity="0.1" enable-background="new    " d="M460.23,791.32c0,0,37.14,1.84,36.77,5.891
	C496.63,801.26,460.23,791.32,460.23,791.32z"/>
<path opacity="0.1" enable-background="new    " d="M410.54,780.73c1.47,1.39,28.33,4,26.12,6.54s-23.91,7.479-23.91,7.479
	L410.54,780.73z"/>
<path opacity="0.1" enable-background="new    " d="M406.13,735.03c0,1.101,5.52,35.32,7,36.79s13.61,2.94,13.61,2.94L406.13,735.03
	z"/>
<path fill="#3F3D56" d="M446.18,267.29c-5.27,5.89-7.55,14.239-13.689,19.22c-3.73,3-8.45,4.43-12.79,6.47
	c-4.34,2.04-8.64,5.15-9.93,9.771c-1.44,5.199,1.34,10.51,2.8,15.71c1.51,5.38,1.6,11,1.69,16.63c0.1,6.81,0.21,13.62,0.09,20.43
	c-0.18,10.61-1.06,21.71-6.69,30.7c20.33,6.47,41.95,7.35,63.27,8.18c4.098,0.292,8.213,0.188,12.29-0.31
	c3.533-0.704,7.028-1.589,10.471-2.65c6.806-1.801,13.819-2.698,20.859-2.67c3.07,0,6.2,0.19,9.16-0.61
	c2.96-0.8,5.81-2.85,6.61-5.81c0.71-2.66-0.33-5.49-1.69-7.88c-2.479-4.36-6-8-8.66-12.3c-5.507-9.212-6.312-20.49-2.17-30.391
	c2.36-5.49,6.16-10.27,8.48-15.77c4.853-12.059,2.235-25.84-6.7-35.28c-8.07-8.26-19.65-11.46-30.73-13.16
	c-4.665-0.551-9.116-2.271-12.939-5c-4.25-2.8-9.76-3.479-14.74-2.859C455.425,260.354,450.104,263.044,446.18,267.29z"/>
<g opacity="0.1">
	<path d="M518.11,326.01c-2.039,4.818-2.913,10.05-2.551,15.27c0.225-3.732,1.087-7.398,2.551-10.84
		c2.35-5.49,6.149-10.27,8.47-15.77c1.896-4.593,2.694-9.565,2.33-14.521c-0.206,3.474-0.994,6.888-2.33,10.101
		C524.26,315.75,520.46,320.52,518.11,326.01z"/>
	<path d="M414.56,333.73c0.06,3.92,0.12,7.85,0.13,11.771c0-5.4-0.05-10.79-0.13-16.181c-0.08-5.59-0.18-11.25-1.69-16.64
		c-1-3.42-2.48-6.891-3-10.34c-0.89,4.899,1.64,9.87,3,14.76C414.38,322.44,414.48,328.14,414.56,333.73z"/>
	<path d="M524.05,382.44c-3,0.811-6.08,0.63-9.149,0.61c-7.035-0.045-14.045,0.836-20.851,2.62c-3.442,1.057-6.938,1.938-10.47,2.64
		c-4.08,0.507-8.199,0.614-12.3,0.32c-20.601-0.811-41.49-1.681-61.22-7.57c-0.586,1.308-1.254,2.577-2,3.8
		c20.33,6.46,41.95,7.351,63.26,8.18c4.101,0.294,8.22,0.188,12.3-0.319c3.52-0.695,7.001-1.573,10.43-2.63
		c6.791-1.791,13.787-2.682,20.811-2.65c3.069,0,6.189,0.19,9.149-0.62c2.96-0.81,5.811-2.84,6.61-5.8
		c0.337-1.371,0.303-2.807-0.101-4.16C529.63,379.659,526.88,381.61,524.05,382.44z"/>
</g>
<path fill="#FBBEBE" d="M494.43,370.59c-0.739,1.66-3.859,16-4.6,17.47s-4.78,25-5.15,26.32c-0.37,1.319-26.63-5.521-26.63-5.521
	l-15.81-13.25l-16.25-16.17c0,0-0.48-14.59,11.49-19.27c0.813-0.32,1.648-0.58,2.5-0.78c14.52-3.49,13.06-47.64,13.06-47.64
	l29.8,12.869c0,0-5.52,25.761-5.33,30.73c0.05,1.67,1.36,2.71,3.07,3.34c2.644,0.752,5.396,1.05,8.14,0.88
	C488.72,359.57,495.17,368.94,494.43,370.59z"/>
<path fill="#508EEB" d="M547.78,418.97l4.229,1.109c0,0,3.13,4.761-4.229,9.19c-4.674,2.839-9.159,5.976-13.431,9.39l-21.75,6.62
	l-4.189-13.149l20.24-15.36L547.78,418.97z"/>
<path opacity="0.1" enable-background="new    " d="M547.78,418.97l4.229,1.109c0,0,3.13,4.761-4.229,9.19
	c-4.674,2.839-9.159,5.976-13.431,9.39l-21.75,6.62l-4.189-13.149l20.24-15.36L547.78,418.97z"/>
<path fill="#508EEB" d="M389.05,431.67l-8.46,8.279c0,0,15.26,17.66,27,18.761c11.74,1.1,19.311-13.431,19.311-13.431l-10.16-16
	L389.05,431.67z"/>
<path opacity="0.1" enable-background="new    " d="M389.05,431.67l-8.46,8.279c0,0,15.26,17.66,27,18.761
	c11.74,1.1,19.311-13.431,19.311-13.431l-10.16-16L389.05,431.67z"/>
<circle opacity="0.1" enable-background="new    " cx="469.41" cy="311.17" r="29.43"/>
<circle fill="#FBBEBE" cx="469.41" cy="308.96" r="29.43"/>
<path opacity="0.1" enable-background="new    " d="M522.21,556.03c-6.701,0.768-13.302,2.245-19.69,4.41
	c-11,3.66-97.2,0.061-98.399,0c0-2.08,0-3.31,0-3.31l4.22-10.48l50-6.26h23.92c0,0,36,8.46,39.721,12.11
	C522.13,554.699,522.21,556.03,522.21,556.03z"/>
<path opacity="0.1" enable-background="new    " d="M494.43,370.59c-0.739,1.66-3.859,16-4.6,17.47s-4.78,25-5.15,26.32
	c-0.37,1.319-26.63-5.521-26.63-5.521l-15.81-13.25l-16.25-16.17c0,0-0.48-14.59,11.49-19.27l29.72,34.17l13.38-35.65
	c2.644,0.752,5.396,1.05,8.14,0.88C488.72,359.57,495.17,368.94,494.43,370.59z"/>
<path fill="#508EEB" d="M467.2,395.44l-30.42-35c-3.617-2.309-8.153-2.644-12.07-0.89c-6.81,2.95-15.27,5.34-17.48,6.81
	s-10.49,10.57-10.49,10.57l24.661,64.51l-10.86,42.49c0,0,1.66,21.71-2.57,29.62c-2.576,5.058-3.783,10.701-3.5,16.37
	c0,0,1.29,10.489-0.18,16c-0.859,3.684-0.924,7.509-0.19,11.22c0,0,87.39,3.68,98.419,0c6.387-2.171,12.988-3.649,19.69-4.41
	c0,0-2-36.8-4-45.63s1.66-42.49,1.66-42.49l-2.39-36.06l14.34-37c0,0-7.771-23.721-15.87-26.11c0,0-14.71-3.5-17.84-5.15
	c-3.13-1.649-12.33-3.13-12.33-3.13l-4.83,1.62L467.2,395.44z"/>
<path opacity="0.1" enable-background="new    " d="M445.63,422.98l64.013,4.353c1.62,0.11,2.844,1.513,2.733,3.133l-6.872,101.066
	c-0.11,1.62-1.513,2.844-3.133,2.733l-64.012-4.353c-1.62-0.11-2.845-1.513-2.734-3.133l6.872-101.066
	C442.607,424.093,444.01,422.869,445.63,422.98z"/>
<path fill="#3F3D56" d="M447.834,420.784l64.013,4.353c1.62,0.11,2.844,1.513,2.733,3.133l-6.872,101.066
	c-0.11,1.62-1.513,2.844-3.133,2.734l-64.012-4.353c-1.62-0.11-2.845-1.513-2.734-3.133l6.872-101.067
	C444.812,421.899,446.214,420.674,447.834,420.784z"/>
<rect x="445.656" y="430.884" transform="matrix(-0.9977 -0.0678 0.0678 -0.9977 918.8757 985.1912)" fill="#FFFFFF" width="61.02" height="92.219"/>
<rect x="453.999" y="454.786" transform="matrix(-0.9976 -0.0698 0.0698 -0.9976 924.435 955.7849)" opacity="0.1" enable-background="new    " width="49.852" height="13.893"/>
<rect x="494.329" y="511.346" transform="matrix(-0.9977 -0.0679 0.0679 -0.9977 960.4501 1062.5789)" opacity="0.1" enable-background="new    " width="7.91" height="7.239"/>
<rect x="454.003" y="492.808" transform="matrix(-0.9977 -0.0678 0.0678 -0.9977 913.7217 1023.8879)" opacity="0.1" enable-background="new    " width="40.49" height="7.24"/>
<rect x="459.71" y="428.176" transform="matrix(-0.9977 -0.0678 0.0678 -0.9977 931.0455 899.1023)" fill="#3F3D56" width="42.161" height="11.13"/>
<rect x="459.71" y="428.176" transform="matrix(-0.9977 -0.0678 0.0678 -0.9977 931.0455 899.1023)" opacity="0.1" enable-background="new    " width="42.161" height="11.13"/>
<path opacity="0.1" enable-background="new    " d="M470.88,554c0,0-0.37,54.46-14.72,85.729c0,0,17.3-41.21,17.3-42.86
	c0-1.649,9.56-18.949,7-24.1S470.88,554,470.88,554z"/>
<path opacity="0.1" enable-background="new    " d="M471.66,301.6c-0.55-4.82,0.63-9.679,3.33-13.71
	c-0.664,8.352,4.895,15.927,13.06,17.8c-0.689-0.599-0.94-1.561-0.63-2.42c2.05,2.32,3.62,5.07,5.94,7.11
	c2.319,2.04,5.8,3.26,8.529,1.81c3.71-2,3.75-7.27,2.79-11.37c-2.06-8.731-6.286-16.803-12.29-23.47
	c-3.036-4.085-7.81-6.513-12.899-6.56c-5.681-0.44-11.58,0.06-16.67,2.609c-2.864,1.563-5.548,3.438-8,5.59l-14,11.421
	c-1.348,0.97-2.501,2.185-3.4,3.579c-0.601,1.167-0.961,2.442-1.06,3.75c-0.729,7.629,2.918,15.014,9.42,19.07
	c-0.139-6.046,3.39-11.576,8.93-14c0.858,0.718,1.365,1.771,1.39,2.89l2.95-5.26c0.439-0.957,1.131-1.776,2-2.37
	c1.82-1,4.09,0.181,5.641,1.59c1.55,1.41,3.06,3.17,5.14,3.391l0.08-7.83"/>
<path fill="#3F3D56" d="M471.66,300.5c-0.552-4.823,0.629-9.687,3.33-13.721c-0.9,8,5.13,16.26,13.069,17.8
	c-0.69-0.594-0.941-1.554-0.63-2.409c2.051,2.319,3.62,5.06,5.94,7.109s5.8,3.26,8.53,1.8c3.71-2,3.75-7.27,2.789-11.359
	c-2.06-8.731-6.286-16.804-12.289-23.47c-1.863-2.271-4.211-4.096-6.87-5.34c-1.926-0.713-3.949-1.124-6-1.221
	c-5.681-0.439-11.58,0.05-16.67,2.601c-2.863,1.569-5.546,3.447-8,5.6l-14,11.42c-1.35,0.968-2.503,2.183-3.4,3.58
	c-0.603,1.166-0.963,2.441-1.06,3.75c-0.729,7.625,2.92,15.007,9.42,19.06c-0.133-6.044,3.393-11.571,8.93-14
	c0.855,0.721,1.361,1.772,1.39,2.891l2.94-5.24c0.437-0.959,1.128-1.778,2-2.37c1.82-1,4.09,0.181,5.64,1.59
	c1.55,1.41,3.061,3.16,5.141,3.391l0.08-7.84"/>
<path fill="#FBBEBE" d="M485.6,486.13c-2.569-1.301-45.069,5.33-45.069,5.33s-7-2-23.92-4.78c-16.92-2.78-18-19.32-18-19.32
	l-1.85-33.109l5.71-5l24.46,16c0,0,0.38,8.09,0,9.55c-0.239,1-0.88,2.189-0.819,3c0.038,0.45,0.374,0.819,0.819,0.899
	c1.66,0.42,24.28,4.08,24.28,4.08s52.43-3.59,65.5,14.07c1.035,1.296,1.819,2.775,2.31,4.359
	C522.26,493.28,487.93,487.28,485.6,486.13z"/>
<path opacity="0.1" enable-background="new    " d="M519.05,481.28c-2,0.891-3.24,1.53-3.24,1.53s-18.76-0.55-29.3-4.37
	s-23.35-3.14-23.35-3.14s-43.92-7.561-37.11-17.431c0.038,0.451,0.375,0.82,0.82,0.9c1.66,0.42,24.28,4.08,24.28,4.08
	s52.43-3.59,65.5,14.07C517.718,478.209,518.532,479.688,519.05,481.28z"/>
<path fill="#FBBEBE" d="M537.29,423.02c0,0,2.58,18.21,2.76,19.69c0.181,1.479,1.11,19.31,0,21.34c-1.109,2.029-2.76,5.33-2.76,5.33
	s1.84,3.859-5.521,5.34c-7.359,1.479-16,5.88-16,5.88s-18.77-0.55-29.25-4.41c-10.479-3.86-23.359-3.13-23.359-3.13
	s-55.75-9.57-31.83-21.25s40.84,4.14,40.84,4.14l26.67-1.649c0,0,9.94-6.08,12.7-5.521c1.949,0.248,3.928-0.071,5.7-0.92
	l0.189-19.32L537.29,423.02z"/>
<path opacity="0.1" enable-background="new    " d="M402.05,378.32l-5.34-0.28l-16.18,63c0,0,17.47-4.42,25,0
	c7.53,4.421,21.34,5.33,21.34,5.33l-5.15-50.22L402.05,378.32z"/>
<path fill="#508EEB" d="M402.05,377.21l-5.34-0.28l-16.18,63c0,0,17.47-4.42,25,0c7.53,4.42,21.34,5.33,21.34,5.33l-5.15-50.221
	L402.05,377.21z"/>
<path opacity="0.1" enable-background="new    " d="M524.42,391.01l7.35,1.66c0,0,18.771,27,20.24,28.51s-7,7-10.49,7
	c-3.489,0-20.6,2-25.569,6.62c-4.971,4.62-2.9-18.63-2.9-19.16s6.17-15.2,6.17-15.2L524.42,391.01z"/>
<path fill="#508EEB" d="M524.42,389.909l7.35,1.65c0,0,18.771,27.05,20.24,28.52c1.47,1.471-7,7-10.49,7
	c-3.489,0-20.6,2-25.569,6.62c-4.971,4.62-2.9-18.63-2.9-19.16c0-0.529,6.21-15.25,6.21-15.25L524.42,389.909z"/>
<g opacity="0.1">
	<path d="M474.94,286.87c-0.044-0.768-0.027-1.536,0.05-2.301c-1.522,2.285-2.57,4.853-3.08,7.551v2.319c0,0,0-0.05,0-0.08v0.551
		c0,1.619,0,3.249-0.05,4.869h-0.141v0.75c0-0.26,0-0.51-0.05-0.77c-2-0.32-3.43-2-4.92-3.34s-3.82-2.62-5.64-1.59
		c-0.872,0.591-1.564,1.411-2,2.37l-2.971,5.239c-0.026-1.115-0.533-2.165-1.39-2.88c-5.54,2.424-9.068,7.954-8.93,14
		c-5.543-3.473-9.075-9.402-9.49-15.93c-0.354,7.315,3.276,14.251,9.49,18.13c-0.133-6.045,3.393-11.572,8.93-14
		c0.855,0.72,1.361,1.772,1.39,2.89l2.94-5.24c0.437-0.958,1.128-1.778,2-2.369c1.82-1,4.09,0.18,5.64,1.59
		c1.55,1.409,3.061,3.159,5.141,3.39c0-2.56,0.026-5.113,0.08-7.66C472.431,291.689,473.45,289.142,474.94,286.87z"/>
	<path d="M471.56,296.94c0.051-0.68,0.131-1.359,0.23-2l0.11-2.76C471.6,293.747,471.485,295.346,471.56,296.94z"/>
	<path d="M501.9,308.869c-2.73,1.46-6.21,0.24-8.53-1.8s-3.89-4.79-5.94-7.109c-0.311,0.859-0.06,1.82,0.63,2.42
		c-0.199,0-0.39-0.101-0.579-0.15c2,2.3,3.59,5,5.89,7s5.8,3.26,8.53,1.8c2.729-1.46,3.51-4.88,3.27-8.21
		C504.99,305.44,504.05,307.71,501.9,308.869z"/>
	<path d="M487.42,302.21c-6.849-1.867-11.816-7.791-12.46-14.86c-0.57,7.851,5.35,15.72,13.1,17.229
		C487.385,303.993,487.132,303.057,487.42,302.21z"/>
</g>
<linearGradient id="SVGID_2_" gradientUnits="userSpaceOnUse" x1="1083.3794" y1="-169.1887" x2="1083.3794" y2="446.115" gradientTransform="matrix(1 0 0 -1 -220.9404 691.7095)">
	<stop  offset="0" style="stop-color:#808080;stop-opacity:0.25"/>
	<stop  offset="0.54" style="stop-color:#808080;stop-opacity:0.12"/>
	<stop  offset="1" style="stop-color:#808080;stop-opacity:0.1"/>
</linearGradient>
<path fill="url(#SVGID_2_)" d="M967.661,465.65c0,0-3.941-0.55-3.941-6.28c0-5.729-2.818-16.46-2.818-16.46l0,0
	c0,0-2.441-18.67-5.811-21.63c-3.371-2.96-7.701-20.34-7.701-20.34s-0.738-9.43-2.25-11.46c-1.51-2.03-3.549-7-6.559-14.09
	s-15.531-11.95-15.531-11.95s-22.689-13.16-29.119-17.45l0,0c-0.588-0.355-1.139-0.771-1.641-1.239c-1.119-1.461-6-1.49-6-1.49
	c-0.51-3.23-1-6.931-1.16-10.28c0-0.36,0-0.72,0-1.08c7.17-4.238,12.57-10.92,15.211-18.82c0.119-0.38,0.219-0.77,0.33-1.159
	c0.887-0.274,1.615-0.915,2-1.761c0.57-1.29,0.59-2.79,1.311-4c0.84-1.42,2.439-2.18,3.699-3.239c3.18-2.71,4-7.26,3.85-11.391
	c-0.1-3.359-0.641-6.739-0.43-10.069c0-0.28,0-0.561,0.061-0.84c0.059-0.49,0.129-1,0.219-1.48c0.49-2.479,1.561-4.82,2.16-7.28
	s0.66-5.229-0.74-7.35c-2.049-3.11-6.318-3.73-10.068-4c-4.25-0.36-8,0.1-10.771-3.43c-1.27-1.844-2.703-3.571-4.279-5.16
	c-0.561-0.521-6-3.851-6-4.061c-5.322-2.475-11.361-2.939-17-1.31c-2.83,0.82-5.48,2.16-8.35,2.83c-6.16,1.46-13.26-0.12-18.5,3.41
	c-2.92,2-4.67,5.189-6.311,8.279c-1.334,2.547-2.688,5.097-4.061,7.65c-2.219,4.19-4.459,8.45-5.389,13.09
	c-0.195,1.014-0.318,2.039-0.371,3.07l0,0c0,0.37,0,0.74,0,1.109c0,0.16,0,0.32,0,0.48c0,0.34,0,0.68,0.061,1s0,0.41,0.07,0.62
	s0.09,0.68,0.15,1c0.059,0.32,0.18,0.89,0.299,1.32c0,0.189,0.121,0.369,0.18,0.56c0.061,0.19,0.221,0.67,0.35,1
	c0.131,0.33,0.141,0.35,0.221,0.52c0.15,0.351,0.33,0.69,0.51,1c0.08,0.131,0.141,0.261,0.221,0.391
	c0.273,0.468,0.582,0.916,0.92,1.34c2.129,2.67,5.289,4.37,7.619,6.87c0,0.1,0,0.199,0,0.3c0,0.27,0,0.54,0,0.819
	c0.291,11.321,6.16,21.767,15.68,27.9c0,0.38,0.051,0.771,0.07,1.16c0.195,2.965,0.158,5.94-0.109,8.9
	c-0.826-0.97-2.047-1.514-3.32-1.48c-0.43-0.021-0.859,0.016-1.279,0.11l-0.09-0.07l0,0v0.09c-2.201,0.54-4.91,2.83-7.5,9.34
	c0,0-7.881,8.88-13.881,8.511c-6-0.37-21.189,9.25-21.189,9.25s-14.82,9.609-18,19.409c-1.777,5.559-3.912,10.997-6.391,16.28
	l-18.369,37.72l0,0l-3.371,30c0,0,1.871,13.311,1.5,15.351c-0.369,2.04,7.691,20.34,7.691,20.34s26.629,46.78,37.51,49.18
	l0.779-0.54c0.467,0.236,0.961,0.417,1.471,0.54l2.24-1.569c0.139,1.758,0.078,3.525-0.182,5.27
	c-1.488,4.63,0.57,34.771,3.191,40.68c2.619,5.91,1.689,83.41,1.689,83.41l-0.369,6.83c0,0,0,0.22,0.09,0.601l-0.09,1.619
	l0.27,0.141c0.279,2.173,0.188,4.377-0.27,6.52c-0.941,3-1.32,11.471-1.32,11.471s-7.5,47.88-3.941,57.5
	c3.561,9.619,6.57,20.159,6.57,20.159s3.75,12,0.18,14c-3.568,2-13.68,5.55-11.619,10.54c1.9,4.62,9.109,17,10.18,18.811l-0.09,1
	l-1.471,15.93c0.238,2.104,0.809,4.155,1.691,6.08c1.609,3.479,4.729,7.07,10.689,6.68c1-0.069,2.15-0.18,3.279-0.33
	c10.891-1.47,24.291-6.33,24.291-6.33c-0.695-0.439-1.33-0.968-1.891-1.569l0,0c-1.082-1.048-1.686-2.494-1.67-4
	c0.16-2.91-5.27-16.721-6.629-20.13l-0.311-0.761c0,0,12.379-12.95,10.32-24.409c0,0-13.701-8-9.191-12.4s12.57-17,12.57-17
	s0.371-47.15,0-54.18c-0.385-4.89-0.154-9.809,0.689-14.641c0.15-0.72,0.33-1.43,0.521-2.14c6.242,0.942,12.547,1.42,18.859,1.43
	c2.307,0,4.641-0.047,7-0.14c0,0.666,0.029,1.387,0.09,2.16c0.52,11.68,1.49,32.17,2.281,39.779
	c1.119,10.9,7.309,40.311,7.309,40.311s-11.809,7.569,2.061,26.26c0,0,0,6.76-0.92,7.75l0,0c-0.982,3.207-1.775,6.469-2.371,9.77
	c-0.578,3.511-0.818,7.08,0.121,8.921c2.25,4.42,15.75,4.06,15.75,4.06l0,0c0.107-0.025,0.219-0.042,0.33-0.05
	c5.146-0.544,10.297,1.006,14.289,4.3c5.131,4.12,24.59,2.32,35.141,1c4.131-0.53,6.891-1,6.891-1
	c0.133-0.468,0.18-0.955,0.139-1.44l0,0c-0.109-2.59-2.139-8.27-15.898-13.34c0,0-12.941-8.7-12.762-16.28h-0.289h-1.49
	c0.939-0.029,1.6-0.029,1.6-0.029s-5.068-18.49-3-20c2.07-1.51-4.129-22-4.129-22s-3.551-34.4-3.75-36.8
	c0.014-2.068,0.33-4.124,0.939-6.101l-0.939-18.869c0,0-0.18-6.271,0-8.311c-0.02-1.771-0.16-3.538-0.42-5.29
	c-0.09-0.7-0.18-1.43-0.281-2.149c4.852-1.23,8-2.36,8-2.36l-0.559-65.65c4.119-8,4.879-25.56,4.859-38c0-8-0.359-13.92-0.359-13.92
	l5.629-9.189c0,0,1.301-11-0.76-13.41c-0.91-1.09-0.5-2.22,0.25-3.15c0.395-0.323,0.813-0.617,1.25-0.88
	c-0.049-0.069-0.092-0.143-0.129-0.22c0.393-0.328,0.811-0.626,1.25-0.89c0,0-2-3.101-0.211-4.41c1.68,1.14,3.18,2.05,4.32,2.7
	c-0.08,0.729-0.16,1.149-0.16,1.149l0.48-1c1.1,0.62,1.77,1,1.77,1s8.82-17.57,8.631-20.149c-0.191-2.58,6-13.5,6-13.5
	s0.75-5.74,4.129-8.141c3.381-2.399,2.621-19.79,2.621-19.79s0.939-9.06,3.189-12.75C971.92,470.67,967.661,465.65,967.661,465.65z
	 M798.901,457.94l0.17,4.19c-1-1.61-1.721-2.761-1.721-2.761L798.901,457.94z"/>
<path fill="#FFFFFF" d="M945.62,541.09l-2.16,9.199c0,0-17.299-8.85-20.41-20.05c-3.109-11.2,5.211-15.47,5.211-15.47l16.129,6.82
	L945.62,541.09z"/>
<path opacity="0.1" enable-background="new    " d="M945.62,541.09l-2.16,9.199c0,0-17.299-8.85-20.41-20.05
	c-3.109-11.2,5.211-15.47,5.211-15.47l16.129,6.82L945.62,541.09z"/>
<path fill="#FFFFFF" d="M848.53,854.199c0,0-16,5.88-27,6.62c-5.84,0.391-8.91-3.189-10.49-6.64c-0.857-1.903-1.418-3.927-1.66-6
	l1.451-15.851l0.76-8.43l23.369-6.08l3.311,10.13l0.311,0.761c1.32,3.39,6.66,17.13,6.5,20c-0.027,1.5,0.563,2.945,1.629,4
	C847.25,853.281,847.862,853.782,848.53,854.199z"/>
<path fill="#FFFFFF" d="M957.77,846.14c0.041,0.484-0.006,0.973-0.141,1.439c0,0-34.219,5.7-41.219,0
	c-3.979-3.366-9.191-4.902-14.361-4.229c0,0-13.24,0.359-15.449-4c-0.92-1.83-0.68-5.38-0.109-8.87
	c0.582-3.282,1.355-6.528,2.318-9.72l0.531-0.42l3.15-2.53l36.879-1.09h0.281c-0.182,7.54,12.51,16.189,12.51,16.189
	C955.67,837.909,957.661,843.56,957.77,846.14z"/>
<path opacity="0.1" enable-background="new    " d="M957.78,846.14c0.035,0.485-0.016,0.973-0.15,1.439c0,0-34.219,5.7-41.209,0
	c-3.982-3.369-9.199-4.905-14.371-4.229c0,0-13.25,0.359-15.459-4c-0.91-1.83-0.68-5.38-0.109-8.88
	c5.1,0.51,13.148,1.78,16.309,4.819c4.781,4.601,12.881,9.2,17.84,9.57C924.549,845.1,947.86,845.84,957.78,846.14z"/>
<path opacity="0.1" enable-background="new    " d="M848.53,854.199c0,0-16,5.88-27,6.62c-5.84,0.391-8.91-3.189-10.49-6.64
	c4.08,1.37,9.73,2.8,12.701,1.49c3.52-1.57,16-2.57,23-3C847.268,853.255,847.87,853.77,848.53,854.199z"/>
<path fill="#CF6F80" d="M872.27,380.31c-13.199-5.13-30.18-22.08-25.939-30c0.936-2,1.496-4.156,1.65-6.36
	c0.271-2.992,0.313-6.001,0.119-9c-0.297-4.914-0.889-9.806-1.77-14.649c0,0,41.209,0.93,38.809,7
	c-0.699,1.79-0.818,4.88-0.619,8.33c0.199,3.449,0.689,7.38,1.211,10.689c0.709,4.53,1.439,8,1.439,8s-2.531,3.53-4,3.72
	C881.7,358.23,891.209,387.659,872.27,380.31z"/>
<path opacity="0.1" enable-background="new    " d="M838.54,828.659L838.231,829c-12.32-14.9-27.221,3.68-27.221,3.68l-0.221-0.4
	l0.76-8.43l23.371-6.08l3.311,10.13L838.54,828.659z"/>
<path opacity="0.1" enable-background="new    " d="M929.67,817.77c0,0-9-0.18-13.801,4.06c-4.799,4.24-28,0.91-27,0
	c0.293-0.461,0.471-0.985,0.52-1.529l3.15-2.53l36.881-1.09C929.559,817.38,929.67,817.77,929.67,817.77z"/>
<path fill="#508EEB" d="M853.87,700.76c-0.668,1.657-1.178,3.375-1.52,5.13c-0.834,4.806-1.066,9.696-0.689,14.56
	c0.369,7,0,53.91,0,53.91s-7.91,12.51-12.33,16.92s9,12.33,9,12.33c2,11.41-10.121,24.29-10.121,24.29
	c-12.32-14.9-27.219,3.67-27.219,3.67s-8.102-14-10.121-19s7.91-8.45,11.4-10.49s-0.18-14-0.18-14s-2.939-10.489-6.439-20.06
	s3.859-57.2,3.859-57.2s0.379-8.47,1.289-11.42c0.455-2.129,0.547-4.32,0.271-6.479c-0.061-0.73-0.131-1.33-0.182-1.75
	c-0.049-0.42-0.09-0.601-0.09-0.601l0.141-0.24l5-9.319C815.94,681.01,856.27,694.89,853.87,700.76z"/>
<path fill="#508EEB" d="M929.67,816.67c0,0-9-0.19-13.801,4c-4.799,4.189-28,0.92-27,0s0.91-7.721,0.91-7.721
	c-13.609-18.59-2-26.13-2-26.13s-6.07-29.25-7.17-40.1c-0.77-7.57-1.721-28-2.23-39.57c-0.219-5-0.35-8.45-0.35-8.45l11.02-2.189
	l1.432-0.28l26.818-5.39c0,0,0.74,5,1.24,9.09c0.254,1.745,0.391,3.506,0.41,5.27c-0.17,2,0,8.271,0,8.271l0.92,18.76
	c-0.594,1.97-0.902,4.014-0.92,6.07c0.189,2.399,3.68,36.609,3.68,36.609s6.07,20.42,4,21.891
	C924.559,798.27,929.67,816.67,929.67,816.67z"/>
<path opacity="0.1" enable-background="new    " d="M885.139,327.329c-0.699,1.79-0.818,4.881-0.619,8.33
	c-11.264,6.783-25.416,6.52-36.42-0.68c-0.297-4.914-0.889-9.807-1.77-14.65C846.331,320.329,887.54,321.26,885.139,327.329z"/>
<path fill="#CF6F80" d="M901.049,305.25c0.227,18.894-14.906,34.393-33.799,34.619c-18.895,0.227-34.395-14.906-34.621-33.8
	c0-0.28,0-0.54,0-0.819c0-18.899,15.322-34.221,34.221-34.221s34.221,15.321,34.221,34.221H901.049z"/>
<path opacity="0.1" enable-background="new    " d="M872.27,380.31c-13.199-5.13-30.18-22.08-25.939-30
	c0.936-2,1.496-4.156,1.65-6.36l18.068,14.86l11.182,9.17l8.5-21.63c0.709,4.53,1.439,8,1.439,8s-2.531,3.53-4,3.72
	C881.7,358.26,891.209,387.659,872.27,380.31z"/>
<polygon fill="#508EEB" points="919,445.98 903.911,699.48 884.231,700.77 833.26,553.78 841.62,379.27 843.389,342.4 
	866.049,361.01 877.231,370.18 885.981,347.909 902.25,362.09 "/>
<path opacity="0.1" enable-background="new    " d="M853.87,700.76c-0.668,1.657-1.178,3.375-1.52,5.13
	c-14.334-2.207-28.256-6.552-41.301-12.89l-0.27-0.141l0.09-1.609v-0.841l5-9.319C815.87,681.09,856.27,694.89,853.87,700.76z"/>
<path opacity="0.1" enable-background="new    " d="M889.379,705.93c-3.66,0.626-7.352,1.05-11.059,1.27
	c-0.221-5-0.352-8.449-0.352-8.449l11.08-2.24L889.379,705.93z"/>
<path opacity="0.1" enable-background="new    " d="M918.581,699.93c-7.111,1.85-18.1,3.93-27.92,2.63l-0.141-6.33l26.82-5.39
	C917.34,690.84,918.049,695.8,918.581,699.93z"/>
<path opacity="0.1" enable-background="new    " d="M890.481,703.72c-41,7-78.551-13.07-78.551-13.07l0.359-6.8
	c0,0,0.93-77.09-1.65-83s-4.59-35.84-3.129-40.41c1.459-4.57-5.33-73.57-5.33-73.57l-1.1-28L760.79,442.5l18-37.53
	c2.432-5.261,4.521-10.672,6.26-16.2c3.131-9.75,17.66-19.32,17.66-19.32s14.9-9.56,20.791-9.2c5.889,0.36,13.609-8.46,13.609-8.46
	c5.699-14.529,10.859-8,10.859-8c0,0.7,0,0-0.279,2.15c-2,15.95,32.34,66.35,32.83,67.25l0,0l3.311,79.66l3.309,100.81
	L890.481,703.72z"/>
<path fill="#FFFFFF" d="M889.379,703.72c-41,7-78.559-13.07-78.559-13.07l0.369-6.8c0,0,0.92-77.09-1.66-83s-4.59-35.87-3.119-40.48
	c1.469-4.609-5.361-73.54-5.361-73.54l-1.109-28l-40.279-16.369l18-37.53c2.424-5.26,4.516-10.667,6.26-16.19
	c3.129-9.72,17.709-19.3,17.709-19.3s14.9-9.56,20.781-9.2c5.879,0.36,13.639-8.45,13.639-8.45c5.711-14.529,12-8,12-8
	c0,0.7-0.6,1-0.279,2.15c4.4,15.47,31.24,66.35,31.73,67.25l0,0l3.309,79.66l3.24,100.86L889.379,703.72z"/>
<path opacity="0.1" enable-background="new    " d="M878.331,415.44c-4.41-1.84-27.771-28.51-27.771-28.51v-6.07
	c-0.85-2-5.908-0.78-10,0.62l1.762-36.87l2,1.66C848.69,361.73,877.85,414.55,878.331,415.44z"/>
<path fill="#FFFFFF" d="M879.44,413.24c-4.42-1.85-27.779-28.51-27.779-28.51v-6.08c-0.852-2-5.9-0.78-10,0.62l1.729-36.83l2,1.65
	C849.799,359.53,878.95,412.34,879.44,413.24z"/>
<path opacity="0.1" enable-background="new    " d="M811.93,546.24c0.551,0,28.51-2.939,28.51-2.939s16.93,33.3,15.82,41.39
	s-3.121,15.271-9.93,14c-6.811-1.27-36.65,1-36.65,1L811.93,546.24z"/>
<path fill="#FFFFFF" d="M810.821,544.03c0.559,0,28.52-2.939,28.52-2.939s16.92,33.35,15.82,41.35c-1.102,8-3.131,15.271-9.93,14
	c-6.801-1.27-36.66,1-36.66,1L810.821,544.03z"/>
<path fill="#CF6F80" d="M831.889,528.44c0,0,25.66,13.8,26.211,18s-13.061-1.84-16-2.58c-1.936-0.46-3.906-0.768-5.891-0.92
	l-19.609,0.53L831.889,528.44z"/>
<circle opacity="0.1" enable-background="new    " cx="871.161" cy="414.46" r="2.7"/>
<circle fill="#3F3D56" cx="871.161" cy="413.36" r="2.7"/>
<circle opacity="0.1" enable-background="new    " cx="876.129" cy="531.34" r="2.7"/>
<circle fill="#3F3D56" cx="876.129" cy="530.23" r="2.7"/>
<circle opacity="0.1" enable-background="new    " cx="873.86" cy="472.9" r="2.7"/>
<circle fill="#3F3D56" cx="873.86" cy="471.8" r="2.7"/>
<path fill="#FFFFFF" d="M936.1,542.38c0,0,1.84,2.76,0,4c-1.84,1.239,0.18,4.42,0.18,4.42s-4.59,2.68-2.57,5.109
	c2.021,2.431,0.74,13.341,0.74,13.341l-5.52,9.189c0,0,0.33,5.89,0.35,13.85c0,12.42-0.73,29.881-4.77,37.841l0.539,65.31
	c0,0-19.33,7.07-35.51,4.91l-2.4-104.8c0,0,3.5-59.431,4.791-70.83c0.754-5.919,1.063-11.886,0.92-17.851
	c0,0-0.551-17.84-2.4-26.109c0,0-2-35.88-2.199-45.811c-0.09-4.75,0.16-18.609,0.439-31.79c0.311-14.409,0.66-28,0.66-28
	l-3.65-28.89c0,0,3.65-0.36,4.75,1.1c0.492,0.461,1.029,0.873,1.6,1.23l0,0c6.311,4.26,28.57,17.36,28.57,17.36
	s12.32,4.899,15.27,11.92c2.951,7.02,5,12,6.432,14c1.43,2,2.209,11.399,2.209,11.399s4.24,17.3,7.551,20.23
	c3.309,2.93,5.689,21.529,5.689,21.529l-29.25,23c0,0-2.57,38.261-3.121,39.74C924.85,509.26,936.1,542.38,936.1,542.38z"/>
<path fill="#FFFFFF" d="M937.209,542.38c0,0,1.83,2.76,0,4c-1.83,1.239,0.17,4.42,0.17,4.42s-4.59,2.68-2.57,5.109
	c2.021,2.431,0.74,13.341,0.74,13.341l-5.5,9.189c0,0,0.33,5.89,0.361,13.85c0,12.42-0.73,29.881-4.771,37.841l0.551,65.31
	c0,0-19.33,7.07-35.51,4.91l-2.391-104.8c0,0,3.49-59.431,4.791-70.83c0.756-5.919,1.059-11.886,0.91-17.851
	c0,0-0.551-17.84-2.391-26.109c0,0-2-35.88-2.211-45.811c-0.09-4.75,0.16-18.609,0.441-31.79c0.309-14.409,0.66-28,0.66-28
	l-4.82-29.279c0,0,4.82,0,5.93,1.489c0.488,0.466,1.023,0.879,1.6,1.23l0,0c6.301,4.26,28.561,17.36,28.561,17.36
	s12.289,4.899,15.289,11.92c3,7.02,5,12,6.432,14c1.43,2,2.209,11.399,2.209,11.399s4.24,17.3,7.551,20.23
	c3.309,2.93,5.699,21.529,5.699,21.529l-29.25,23c0,0-2.57,38.261-3.131,39.74C926,509.26,937.209,542.38,937.209,542.38z"/>
<path opacity="0.1" enable-background="new    " d="M902.18,383.65l2.65,7.7l-13.91,14c0.311-14.41,0.66-28,0.66-28l-4.82-29.271
	c0,0,4.82,0,5.93,1.49c0.488,0.466,1.025,0.878,1.6,1.23l0,0l11.82,34.09L902.18,383.65z"/>
<path fill="#FFFFFF" d="M901.049,381.44l2.65,7.69l-13.9,14c0.301-14.41,0.66-28,0.66-28l-4.83-29.28c0,0,4.83,0,5.93,1.49
	c0.492,0.463,1.027,0.875,1.602,1.229l0,0l11.889,34.12L901.049,381.44z"/>
<path opacity="0.1" enable-background="new    " d="M901.049,305.25c0.004,3.603-0.563,7.184-1.68,10.609
	c-0.381,0.063-0.77-0.03-1.08-0.26c-0.27-9-4.689-17.46-10.139-24.649c-1.533-2.169-3.389-4.091-5.5-5.7
	c-2.139-1.605-4.799-2.357-7.461-2.11c-3,0.41-5.65,2.45-8.68,2.71c-4,0.33-7.58-2.439-11.551-2.57
	c-3.266,0.027-6.361,1.464-8.49,3.94c-2.086,2.462-3.637,5.334-4.549,8.43c-1.572,4.698-2.43,9.606-2.541,14.56
	c-0.049,2.801-0.32,6.311-2.92,7.33c0.398-4.16-0.969-8.297-3.77-11.399l-0.061-0.07c0-0.28,0-0.54,0-0.82
	c0-18.898,15.322-34.22,34.221-34.22s34.221,15.321,34.221,34.22L901.049,305.25z"/>
<path fill="#512E4E" d="M881.049,250.92c-5.195-2.444-11.105-2.907-16.619-1.3c-2.77,0.819-5.381,2.149-8.189,2.819
	c-6,1.45-13-0.12-18.15,3.391c-2.859,2-4.58,5.16-6.18,8.239l-4,7.61c-2.18,4.17-4.381,8.41-5.291,13s-0.359,9.73,2.551,13.43
	c2.109,2.68,5.25,4.37,7.549,6.9c2.795,3.118,4.158,7.262,3.762,11.43c2.6-1,2.859-4.53,2.92-7.33
	c0.111-4.953,0.967-9.861,2.539-14.56c0.912-3.097,2.463-5.968,4.551-8.43c2.127-2.479,5.223-3.92,8.488-3.95
	c4,0.14,7.592,2.91,11.551,2.57c3-0.25,5.66-2.29,8.68-2.7c2.664-0.252,5.324,0.5,7.461,2.109c2.113,1.604,3.965,3.527,5.49,5.7
	c5.459,7.2,9.889,15.62,10.148,24.65c1.131,0.819,2.762-0.261,3.32-1.54c0.561-1.28,0.58-2.78,1.291-4
	c0.82-1.41,2.389-2.171,3.619-3.23c3.121-2.69,3.9-7.22,3.781-11.33c-0.121-4.109-0.92-8.279-0.141-12.319
	c0.471-2.471,1.529-4.801,2.109-7.25c0.58-2.45,0.65-5.2-0.719-7.311c-2-3.09-6.211-3.71-9.881-4c-4.17-0.359-7.9,0.101-10.561-3.41
	c-1.252-1.829-2.656-3.549-4.199-5.14C886.379,254.44,881.049,251.14,881.049,250.92z"/>
<path opacity="0.1" enable-background="new    " d="M772.331,461.8l-10.441-19.311l-3.309,29.8c0,0,1.84,13.24,1.469,15.271
	c-0.369,2.03,7.541,20.229,7.541,20.229s26.129,46.551,36.799,48.94l36-25.76l-9.559-12.141c0,0-3.311-1.29-4.141,0
	c0,0-17.76-30.54-19.59-32.739c-1.83-2.2-1.48-6.631-1.48-6.631s-2.76-2.939-1.84-5.699c0.92-2.761-5.279-12.32-5.279-12.32
	l5.699-5.33L772.331,461.8z"/>
<path fill="#FFFFFF" d="M762.44,440.28l-2.76,2.21l-3.311,29.8c0,0,1.84,13.24,1.471,15.271c-0.371,2.03,7.549,20.229,7.549,20.229
	s26.121,46.551,36.791,48.94l36.061-25.76l-9.57-12.141c0,0-3.311-1.29-4.141,0c0,0-17.75-30.54-19.59-32.739
	c-1.84-2.2-1.471-6.631-1.471-6.631s-2.76-2.939-1.84-5.699c0.92-2.761-5.34-12.32-5.34-12.32l5.701-5.33L762.44,440.28z"/>
<path opacity="0.1" enable-background="new    " d="M933.709,557.06c2,2.43,0.74,13.35,0.74,13.35l-5.52,9.13
	c0,0,0.33,5.9,0.35,13.86L920,596.3c-2.91,0.907-6.006-0.717-6.914-3.628c-0.182-0.586-0.266-1.198-0.246-1.813l1.609-51.6
	l21.65,8.27c-1.84,1.28,0.18,4.42,0.18,4.42S931.69,554.63,933.709,557.06z"/>
<path fill="#FFFFFF" d="M934.809,555.96c2,2.42,0.74,13.34,0.74,13.34l-5.5,9.14c0,0,0.33,5.89,0.361,13.85l-9.451,2.95
	c-2.84,0.891-5.865-0.689-6.756-3.53c-0.18-0.575-0.262-1.177-0.244-1.779l1.611-51.78l21.639,8.29c-1.85,1.28,0.17,4.42,0.17,4.42
	S932.79,553.53,934.809,555.96z"/>
<path fill="#CF6F80" d="M941.991,531.34c0,0-1.471,9.39-5.15,9.939s-5.33,15.19-9,14.681c-3.67-0.511-1.24-13.62-1.109-16.16
	c0.129-2.54-4-13.061-0.922-15.45c3.08-2.39,12.881,0,12.881,0L941.991,531.34z"/>
<path opacity="0.1" enable-background="new    " d="M949.77,459.039l6.93-14c0,0,2.77,10.671,2.77,16.37
	c0,5.7,3.861,6.261,3.861,6.261s4.229,5,2,8.649c-2.23,3.65-3.121,12.69-3.121,12.69s0.73,17.29-2.58,19.68
	c-3.309,2.39-4.049,8.1-4.049,8.1s-6.07,10.851-5.881,13.431s-8.459,20.05-8.459,20.05s4.229-21.71-20.42-31.09
	c0,0-0.191-7.36,1.648-9.38c1.84-2.021,4.711-3,2.91-13.16c-1.799-10.16-0.52-22.41-0.52-24.86s5.52-17.72,5.52-17.72
	L949.77,459.039z"/>
<path fill="#FFFFFF" d="M952.85,443.039l6.061,2c0,0,2.77,10.671,2.77,16.37c0,5.7,3.859,6.261,3.859,6.261s4.23,5,2,8.649
	c-2.23,3.65-3.129,12.69-3.129,12.69s0.74,17.29-2.57,19.68s-4,8.1-4,8.1s-6.07,10.851-5.881,13.431
	c0.191,2.58-8.469,20.05-8.469,20.05s4.229-21.71-20.42-31.09c0,0-0.182-7.36,1.66-9.38c1.84-2.021,4.709-3,2.908-13.16
	c-1.799-10.16-0.52-22.41-0.52-24.86s5.52-17.72,5.52-17.72L952.85,443.039z"/>
<path opacity="0.1" enable-background="new    " d="M818.969,805.909c0,0,9.66-6.069,16-1.659
	C841.309,808.659,818.969,805.909,818.969,805.909z"/>
<path opacity="0.1" enable-background="new    " d="M894.049,787.14c0,0,8.551-1.101,15.73,6.63S894.049,787.14,894.049,787.14z"/>
<g opacity="0.1">
	<path d="M906.54,303.53c-1.23,1.07-2.809,1.82-3.629,3.23c-0.701,1.21-0.721,2.71-1.281,4c-0.559,1.29-2.189,2.359-3.33,1.54
		c-0.26-9-4.689-17.45-10.139-24.65c-1.525-2.17-3.377-4.089-5.49-5.689c-2.139-1.613-4.803-2.369-7.471-2.12
		c-3,0.41-5.641,2.45-8.67,2.71c-4,0.33-7.59-2.44-11.561-2.57c-3.264,0.025-6.355,1.462-8.479,3.94
		c-2.088,2.462-3.639,5.333-4.551,8.43c-1.572,4.699-2.428,9.606-2.539,14.56c-0.061,2.79-0.32,6.271-2.9,7.311
		c0.059,0.742,0.059,1.487,0,2.229c2.609-1,2.869-4.529,2.93-7.33c0.111-4.953,0.969-9.861,2.539-14.56
		c0.914-3.096,2.463-5.968,4.551-8.43c2.125-2.478,5.217-3.918,8.48-3.95c4,0.14,7.6,2.91,11.559,2.57c3-0.25,5.66-2.29,8.67-2.7
		c2.666-0.252,5.33,0.501,7.471,2.11c2.115,1.604,3.967,3.526,5.49,5.699c5.449,7.2,9.881,15.62,10.141,24.65
		c1.139,0.819,2.77-0.26,3.33-1.54c0.559-1.28,0.58-2.78,1.279-4c0.82-1.41,2.4-2.17,3.631-3.23
		c3.119-2.689,3.898-7.22,3.779-11.329c0-0.131,0-0.25,0-0.381C910.151,297.61,909.2,301.24,906.54,303.53z"/>
	<path d="M832.709,302.829c-2.289-2.529-5.43-4.229-7.539-6.909c-1.783-2.366-2.799-5.221-2.91-8.18
		c-0.314,3.7,0.719,7.39,2.91,10.39c2.109,2.68,5.25,4.37,7.539,6.899c2.213,2.474,3.541,5.61,3.781,8.92
		C836.793,309.883,835.428,305.868,832.709,302.829z"/>
	<path d="M912.29,272.63c-0.59,2.45-1.639,4.78-2.119,7.25c-0.289,1.67-0.393,3.367-0.311,5.06c0.033-0.956,0.137-1.908,0.311-2.85
		c0.48-2.47,1.529-4.8,2.119-7.25c0.34-1.353,0.451-2.751,0.33-4.14C912.555,271.35,912.446,271.995,912.29,272.63z"/>
</g>
<ellipse opacity="0.1" fill="#508EEB" enable-background="new    " cx="132.73" cy="823.23" rx="97.44" ry="15.65"/>
<rect x="129.6" y="523.42" fill="#535461" width="6.27" height="141.17"/>
<path fill="#3F3D56" d="M175.28,664.17l-0.4,6.359l-0.55,9l-0.23,3.74l-0.56,9l-0.24,3.74l-0.55,9l-6.33,102.069
	c-0.56,9.116-8.117,16.222-17.25,16.221H116.3c-9.16,0.004-16.73-7.145-17.25-16.29l-6.33-102.07l-0.55-9l-0.23-3.74l-0.57-9
	l-0.23-3.739l-0.55-9l-0.4-6.36c-0.282-4.963,3.513-9.214,8.476-9.496c0.155-0.009,0.31-0.014,0.464-0.014h67.22
	c4.97,0.028,8.977,4.08,8.948,9.051C175.297,663.818,175.292,663.993,175.28,664.17z"/>
<polygon fill="#9D9CB5" points="174.88,670.52 174.32,679.5 91.14,679.5 90.58,670.52 "/>
<polygon fill="#9D9CB5" points="174.09,683.24 173.54,692.22 91.93,692.22 91.37,683.24 "/>
<polygon fill="#9D9CB5" points="173.3,695.97 172.75,704.94 92.72,704.94 92.16,695.97 "/>
<path fill="#53B175" d="M81.05,576.34c36.52,26.42,51.73,67.739,51.73,67.739s-44-1.51-80.53-27.93S0.49,548.44,0.49,548.44
	S44.49,549.92,81.05,576.34z"/>
<path fill="none" stroke="#535461" stroke-width="2" stroke-miterlimit="10" d="M0.49,548.44c0,0,45.67,25.35,60.32,46.34
	s71.93,49.32,71.93,49.32"/>
<path fill="#53B175" d="M104.58,523.119c19.88,14.37,28.16,36.86,28.16,36.86s-24-0.82-43.83-15.19
	C69.08,530.42,60.75,507.92,60.75,507.92S84.71,508.74,104.58,523.119z"/>
<path fill="none" stroke="#535461" stroke-width="2" stroke-miterlimit="10" d="M60.75,507.92c0,0,24.86,13.8,32.84,25.22
	s39.15,26.84,39.15,26.84"/>
<path fill="#53B175" d="M161.62,558.84c-22.83,25.09-27.66,57.88-27.66,57.88s32.19-7.9,55-33c22.81-25.101,27.66-57.88,27.66-57.88
	S184.45,533.75,161.62,558.84z"/>
<path fill="none" stroke="#535461" stroke-width="2" stroke-miterlimit="10" d="M216.64,525.85c0,0-29.74,25.72-37.3,43.439
	c-7.56,17.721-45.38,47.431-45.38,47.431"/>
</svg>
