<?xml version="1.0" encoding="utf-8"?>
<!-- Generator: Adobe Illustrator 16.0.0, SVG Export Plug-In . SVG Version: 6.00 Build 0)  -->
<!DOCTYPE svg PUBLIC "-//W3C//DTD SVG 1.1//EN" "http://www.w3.org/Graphics/SVG/1.1/DTD/svg11.dtd">
<svg version="1.1" id="Layer_1" xmlns="http://www.w3.org/2000/svg" xmlns:xlink="http://www.w3.org/1999/xlink" x="0px" y="0px"
	 width="200px" height="200px" viewBox="0 0 200 200" enable-background="new 0 0 200 200" xml:space="preserve">
<g>
	<path fill="#2F4156" d="M150.486,4.313H51.514c-3.65,0-6.606,2.957-6.606,6.606v158.37h112.184V10.919
		C157.092,7.27,154.136,4.313,150.486,4.313z"/>
	<path fill="#FFFFFF" d="M110.898,20.811H91.101c-1.821,0-3.299-1.479-3.299-3.299c0-1.821,1.478-3.3,3.299-3.3h19.797
		c1.821,0,3.299,1.479,3.299,3.3C114.197,19.333,112.72,20.811,110.898,20.811z"/>
	<path fill="#CECECE" d="M148.988,195.686H53.012c-4.478,0-8.104-3.627-8.104-8.104v-31.49h112.184v31.49
		C157.092,192.059,153.466,195.686,148.988,195.686z"/>
	<circle fill="#FFFFFF" cx="101" cy="175.889" r="9.898"/>
	<path fill="#ED8A19" d="M101,96.701l-19.797-9.899V60.405L101,70.304V96.701z"/>
	<path fill="#EBBA16" d="M120.797,60.405L101,70.304l-19.797-9.899L101,50.507L120.797,60.405z"/>
	<path fill="#D37313" d="M101,96.701l19.797-9.899V60.405L101,70.304V96.701z"/>
	<path fill="#3FEFEF" d="M120.797,132.994L101,123.096V96.701l19.797,9.899V132.994z"/>
	<path fill="#12A2A8" d="M140.594,96.701l-19.797,9.899L101,96.701l19.797-9.899L140.594,96.701z"/>
	<path fill="#1DD1D9" d="M120.797,132.994l19.797-9.898V96.701l-19.797,9.899V132.994z"/>
	<path fill="#FC3E81" d="M81.203,132.994l-19.797-9.898V96.701l19.797,9.899V132.994z"/>
	<path fill="#FD82AC" d="M101,96.701L81.203,106.6l-19.797-9.899l19.797-9.899L101,96.701z"/>
	<path fill="#F01054" d="M81.203,132.994L101,123.096V96.701L81.203,106.6V132.994z"/>
</g>
</svg>
