<svg id="Capa_1" enable-background="new 0 0 512 512" height="512" viewBox="0 0 512 512" width="512" xmlns="http://www.w3.org/2000/svg"><g><path d="m361 151v-151h-105-105v151h-151v210h151v151h105 105v-151h151v-210z" fill="#f9b"/><path d="m361 361h151v-210h-151v-151h-105v512h105z" fill="#f69"/><path d="m328.466 229.398c-5.464-19.658-22.925-33.398-42.466-33.398-10.928 0-21.46 3.618-30 9.961-8.54-6.343-19.072-9.961-30-9.961-19.526 0-36.958 13.667-42.407 33.252-4.336 15.601-6.724 56.558 64.658 99.595l7.749 4.673 7.734-4.673c71.426-43.023 69.068-83.877 64.732-99.449z" fill="#fff7cc"/><path d="m328.466 229.398c-5.464-19.658-22.925-33.398-42.466-33.398-10.928 0-21.46 3.618-30 9.961v127.559l7.734-4.673c71.426-43.023 69.068-83.877 64.732-99.449z" fill="#ffe6b3"/></g></svg>