<?xml version="1.0" encoding="utf-8"?>
<!-- Generator: Adobe Illustrator 16.0.0, SVG Export Plug-In . SVG Version: 6.00 Build 0)  -->
<!DOCTYPE svg PUBLIC "-//W3C//DTD SVG 1.1//EN" "http://www.w3.org/Graphics/SVG/1.1/DTD/svg11.dtd">
<svg version="1.1" id="Layer_1" xmlns="http://www.w3.org/2000/svg" xmlns:xlink="http://www.w3.org/1999/xlink" x="0px" y="0px"
	 width="600px" height="300px" viewBox="0 0 600 300" enable-background="new 0 0 600 300" xml:space="preserve">
<g id="Layer_x0020_1">
	<g id="_2283742353472">
		<g>
			<path fill="#33CC99" d="M254,196l-1,29h-20l1-139c0-4,1-8,4-11s6-5,11-5h36c5,0,9,2,12,5s5,7,5,11v84c0,4-2,8-5,11s-7,4-12,4h-14
				l36,40h-28L254,196z M282,165V90h-28v75H282z M317,225V70h20v155H317z M406,103V89h-26v55h27v19h-27v43h26v-23h20v28
				c0,3-2,7-5,10c-2,3-6,4-10,4h-36c-4,0-8-1-10-4c-3-3-5-7-5-10V85c0-4,2-7,5-10c2-3,6-5,10-5h36c4,0,8,2,10,5c3,3,5,6,5,10v18H406
				z M458,196v29h-21l1-139c0-4,2-8,4-11c3-3,7-5,11-5h37c4,0,8,2,11,5s5,7,5,11v84c0,4-2,8-5,11s-7,4-11,4h-15l36,40h-27L458,196z
				 M486,165V90h-28v75H486z"/>
			<polygon fill="#33CC99" points="89,65 134,65 134,182 89,147 			"/>
			<polygon fill="#33CC99" points="89,26 171,26 171,240 151,226 151,46 89,46 			"/>
			<polygon fill="#33CC99" points="272,26 191,26 191,240 211,226 211,46 273,46 			"/>
		</g>
		<path fill="#9B9B9B" d="M268,274h5v-33h-5v13h-29v-13h-5v33h5v-15h29V274z M289,274h32v-4h-27v-11h23v-4h-23v-9h27v-5h-32V274z
			 M370,274h6l-23-34l-22,34h6l7-10h19L370,274z M353,249l7,11h-13L353,249z M392,241h-5v33h32v-4h-27V241z M437,246v28h5v-28h17v-5
			h-38v5H437z M504,274h5v-33h-5v13h-28v-13h-5v33h5v-15h28V274z"/>
	</g>
</g>
</svg>
