<?xml version="1.0" encoding="utf-8"?>
<!-- Generator: Adobe Illustrator 16.0.0, SVG Export Plug-In . SVG Version: 6.00 Build 0)  -->
<!DOCTYPE svg PUBLIC "-//W3C//DTD SVG 1.1//EN" "http://www.w3.org/Graphics/SVG/1.1/DTD/svg11.dtd">
<svg version="1.1" id="Layer_1" xmlns="http://www.w3.org/2000/svg" xmlns:xlink="http://www.w3.org/1999/xlink" x="0px" y="0px"
	 width="1200px" height="600px" viewBox="0 0 1200 600" enable-background="new 0 0 1200 600" xml:space="preserve">
<path fill="#FFFFFF" d="M140,296h28l85-217h-32l-67,176L93,84c-1-1-1-2-1-3l-2-2H56L140,296z"/>
<path fill="#FFFFFF" d="M356,211h-87c1-11,5-21,13-29c17-17,47-17,62-2C351,187,356,201,356,211z M379,270l-21-16l-2,1c0,0,0,1-1,1
	c-1,1-1,2-2,3c-3,3-12,10-16,12c-18,9-43,4-57-11c-7-7-10-16-11-26c12,0,114,0,116-1c2-5-1-26-2-31c-4-18-12-32-27-43
	c-10-8-26-13-40-12c-5,0-10,0-16,1c-27,4-46,22-56,48c-7,17-6,42,1,58c7,18,16,28,32,37c6,4,20,8,27,8c2,0,2,1,4,1
	C335,302,362,292,379,270z"/>
<path fill="#FFFFFF" d="M510,226c0-9,1-17,4-25c8-19,25-28,45-28c3,0,8,0,11,1s6,2,9,3c19,9,27,26,27,46c0,27-17,51-47,51
	c-13,0-26-4-35-13c-3-4-8-10-10-15c-1-3-2-7-2-9L510,226z M553,147c0,0-7,0-17,2c-14,5-25,12-35,22s-17,25-19,39c-2,6-2,17-1,22
	c1,8,4,20,8,26c4,7,10,17,17,22c4,3,4,4,11,8c3,2,8,5,12,7c12,4,21,5,34,5c2,0,6-1,8-1c19-3,31-11,44-24c10-10,17-25,19-39
	c2-12,2-22-2-34c-1-5-3-10-5-14c-8-17-24-29-41-36c-5-2-10-4-15-4C566,147,558,146,553,147z"/>
<path fill="#FFFFFF" d="M1004,340l-3,26c10,4,29,5,39,2c12-3,20-11,26-21s21-51,26-65c5-11,51-129,52-132h-30l-10,28
	c-3,10-7,19-11,29l-15,43c-1,2-2,4-3,7c0,1,0,2-1,3l-1,4c-2-2-10-24-11-28l-27-71c-2-5-5-11-5-15h-33c1,2,10,24,11,28
	c7,18,16,37,23,55c8,20,17,41,25,61c1,2,1,2,1,3l-7,18c-7,21-15,32-38,28C1009,342,1006,341,1004,340z"/>
<path fill="#FFFFFF" d="M789,277l-19-20c-2,1-3,4-5,5c-6,4-8,8-17,10c-10,3-24,2-33-2c-39-17-34-81-1-93c15-6,32-5,45,4
	c4,2,9,7,10,8l21-19c-1-3-12-11-16-13c-19-12-52-13-71-5c-15,7-23,13-32,26c-17,24-18,65-1,90c18,27,51,36,82,30c6-1,16-4,22-8
	C778,287,786,282,789,277z"/>
<path fill="#FFFFFF" d="M908,150c-6,0-26,0-31,0c-1,5-1,19-1,24h32v83c0,8,2,17,5,24s9,12,15,15c10,5,32,5,43,1c2,0,4-2,6-2v-26
	c-8,4-20,6-29,3c-6-2-10-9-11-15l-1-83h40v-24h-40v-41h-28V150z"/>
<polygon fill="#FFFFFF" points="420,296 448,296 448,64 420,64 "/>
<polygon fill="#FFFFFF" points="820,296 848,296 848,150 820,150 "/>
<path fill="#33BFD6" d="M491,466c-2,0-1-1-7,1s-12,6-16,11c-3,4-4,6-6,11c-1,3-2,8-2,11c0,2,0,2,0,4c1,10,6,17,12,23
	c12,12,35,12,46,1c1-1,2-1,2-2c15-15,14-39-2-52C511,468,500,464,491,466z"/>
<path fill="#3EB64F" d="M595,466c-2,0-2-1-7,1c-4,1-9,4-11,6c-1,1-2,2-3,2c-7,7-12,20-10,30c3,19,19,33,40,31c24-3,39-32,26-53
	c-5-7-11-13-20-16c-3-1-7-2-11-2S597,465,595,466z"/>
<path fill="#E74143" d="M698,466c0,0-2,0-3,0c-8,2-15,6-19,12c-6,7-10,17-8,27c2,11,4,15,12,23c16,15,48,10,56-16l2-11
	c0-9-5-22-12-28C718,468,708,464,698,466z"/>
<path fill="#FFFFFF" d="M275,393h11v-37c2,1,22,33,24,37c3,0,13,1,16,0c0-4,0-48,0-54c-4,0-8,0-12,0v37c-2-1-13-21-15-23
	c-2-4-5-8-7-12c-2-3-1-2-8-2c-3,0-6,0-9,0V393z"/>
<path fill="#FFFFFF" d="M819,361c-1-1-1-10-1-12h8l1,1c2,0,5,0,7,2c1,1,2,4,0,7S822,362,819,361z M806,393h13v-21h5l11,21h14
	c0-3-11-19-13-23c6,0,12-6,12-12s0-11-7-15c-3-3-9-4-13-4h-22V393z"/>
<path fill="#FFFFFF" d="M560,362v-12c6,0,16-2,16,6C576,363,567,362,560,362z M548,393h12v-21h5c2,3,11,19,11,21h15l-13-22
	c1-1,1-1,2-1c14-6,13-31-10-31h-22V393z"/>
<path fill="#FFFFFF" d="M913,340c0,1,0,50,0,53c3,1,9,0,12,0v-23h23v23h12c0-7,1-51,0-54c-3,0-9,0-12,0v20h-23v-20
	C922,339,916,338,913,340z"/>
<path fill="#FFFFFF" d="M709,351c2-2,9-1,12-1c4,0,8,0,13,0v-10h-37v53h38c0-3,1-9,0-11c-3-1-22,0-26,0v-11h23v-11h-23V351z"/>
<path fill="#FFFFFF" d="M638,393v-11h-26c0-3-1-8,0-11c3,0,19,0,23,0v-11h-23v-9h25v-11c-3-1-31,0-37,0v53C606,393,635,393,638,393z
	"/>
<path fill="#FFFFFF" d="M770,356c0,0,0,0,0,1c1,1,0,0,1,1l2,6c1,2,3,6,3,8h-12c0-2,2-6,2-8C767,362,769,358,770,356z M742,393h13
	l5-11h20l5,11h13l-23-54h-10C762,345,742,391,742,393z"/>
<path fill="#FFFFFF" d="M442,356l6,16h-13L442,356z M414,393h13l5-11h20l5,11h13c0-2-9-23-11-27c-4-9-8-18-12-27h-10L414,393z"/>
<path fill="#FFFFFF" d="M833,78c-2,1-2-1-8,2c-2,1-4,3-6,5c-4,4-5,9-5,15c0,5,3,11,7,14c18,14,36-4,34-18c-1-8-6-14-13-17l-7-1
	C833,78,833,78,833,78z"/>
<path fill="#FFFFFF" d="M673,379c-3,5-9,5-14,3c-1-1-2-1-2-2c-4-2,1,2-2-1c-1,0-8,7-9,9c2,2,8,5,11,6c5,1,10,1,15-1
	c10-2,15-10,13-20c-2-11-13-10-20-14c-5-2-7-7-1-9c5-2,9,0,13,2l8-8c-4-6-15-7-21-6s-13,5-15,12c-5,16,10,19,18,22
	C672,373,673,374,673,379z"/>
<path fill="#FFFFFF" d="M197,385l-10-7h-1l-1,1c-8,9-24,3-25-12c0-7,3-12,8-16c3-2,7-2,10-2c4,1,5,2,8,4c2-1,8-6,9-7c-2-2-6-7-14-8
	c-11-1-22,2-29,12c-4,6-4,11-4,18C148,395,185,403,197,385z"/>
<path fill="#FFFFFF" d="M410,385l-10-7c-7,11-26,5-26-11c1-12,7-19,18-18c1,0,3,1,4,2l4,2l9-7c-2-6-19-11-32-5c-17,8-19,30-10,42
	C378,398,403,398,410,385z"/>
<path fill="#FFFFFF" d="M904,385l-10-7c0,0-7,9-17,4c-12-6-11-25-1-31c3-2,7-2,10-2c4,1,5,2,8,4l9-7c-7-10-32-13-43,4
	c-8,12-6,35,13,43C886,398,902,391,904,385z"/>
<polygon fill="#FFFFFF" points="206,393 240,393 240,384 240,382 238,382 218,382 218,339 206,339 "/>
<polygon fill="#FFFFFF" points="479,393 513,393 513,382 491,382 491,339 479,339 "/>
<polygon fill="#FFFFFF" points="339,393 351,393 351,339 339,339 "/>
<polygon fill="#FFFFFF" points="249,340 249,393 261,393 261,340 "/>
<path fill="#FFFFFF" d="M249,340h12v53h-12V340z M249,340c-1,1,0,3,0,6v47h12v-54h-10C249,339,250,339,249,340z"/>
<path fill="#FFFFFF" d="M638,393c-3,0-32,0-38,0v-53c6,0,34-1,37,0c-1-1,1-1-2-1h-35v54h36C638,393,637,393,638,393z"/>
<path fill="#FFFFFF" d="M709,351h25v-12h-28c-2,0-7-1-9,1h37v10c-5,0-9,0-13,0C718,350,711,349,709,351z"/>
<path fill="#FFFFFF" d="M819,361v-11h8l-1-1h-8C818,351,818,360,819,361z"/>
</svg>
