<?xml version="1.0" encoding="utf-8"?>
<!-- Generator: Adobe Illustrator 16.0.0, SVG Export Plug-In . SVG Version: 6.00 Build 0)  -->
<!DOCTYPE svg PUBLIC "-//W3C//DTD SVG 1.1//EN" "http://www.w3.org/Graphics/SVG/1.1/DTD/svg11.dtd">
<svg version="1.1" id="b8c64dc2-e86a-49bc-92bf-164106d9e7fb"
	 xmlns="http://www.w3.org/2000/svg" xmlns:xlink="http://www.w3.org/1999/xlink" x="0px" y="0px" width="887.873px"
	 height="569.68px" viewBox="0 0 887.873 569.68" enable-background="new 0 0 887.873 569.68" xml:space="preserve">
<title>proud_coder</title>
<rect x="0.118" y="0.503" fill="#E6E6E6" width="887.755" height="568.557"/>
<rect x="25.503" y="71.814" fill="#FFFFFF" width="836.985" height="463.61"/>
<rect x="-0.262" fill="#6C63FF" width="887.756" height="37.715"/>
<circle fill="#FFFFFF" cx="27.766" cy="19.282" r="6.99"/>
<circle fill="#FFFFFF" cx="54.299" cy="19.282" r="6.99"/>
<circle fill="#FFFFFF" cx="80.831" cy="19.282" r="6.99"/>
<path fill="#CCCCCC" d="M625.659,115.238H353.163c-1.324-0.174-2.255-1.39-2.081-2.714c0.143-1.085,0.997-1.939,2.081-2.082h272.496
	c1.324,0.174,2.256,1.39,2.082,2.714C627.597,114.241,626.744,115.095,625.659,115.238z"/>
<path fill="#CCCCCC" d="M436.847,141.614H263.594c-1.324-0.174-2.256-1.39-2.082-2.714c0.144-1.085,0.997-1.938,2.082-2.082h173.253
	c1.324,0.175,2.255,1.39,2.081,2.714C438.785,140.618,437.931,141.471,436.847,141.614z"/>
<path fill="#CCCCCC" d="M625.659,142.094H452.406c-1.324-0.175-2.257-1.39-2.081-2.714c0.142-1.084,0.996-1.939,2.081-2.082h173.253
	c1.324,0.174,2.256,1.39,2.082,2.714C627.597,141.097,626.744,141.951,625.659,142.094z"/>
<path fill="#CCCCCC" d="M437.268,167.991H264.014c-1.324-0.174-2.257-1.389-2.083-2.713c0.143-1.085,0.997-1.939,2.083-2.082
	h173.253c1.324,0.174,2.256,1.389,2.082,2.713C439.206,166.994,438.352,167.848,437.268,167.991z"/>
<path fill="#CCCCCC" d="M437.688,194.368H264.434c-1.324-0.174-2.256-1.39-2.082-2.714c0.144-1.085,0.997-1.939,2.082-2.082h173.253
	c1.324,0.174,2.257,1.39,2.081,2.714C439.627,193.371,438.772,194.224,437.688,194.368z"/>
<path fill="#CCCCCC" d="M516.325,167.991h-49.621c-1.324-0.174-2.256-1.389-2.082-2.713c0.144-1.085,0.997-1.939,2.082-2.082h49.621
	c1.324,0.174,2.256,1.389,2.081,2.713C518.262,166.994,517.409,167.848,516.325,167.991L516.325,167.991z"/>
<path fill="#CCCCCC" d="M516.325,193.888h-49.621c-1.324-0.174-2.256-1.39-2.082-2.714c0.144-1.084,0.997-1.939,2.082-2.082h49.621
	c1.324,0.175,2.256,1.39,2.081,2.714C518.262,192.891,517.409,193.745,516.325,193.888L516.325,193.888z"/>
<path fill="#CCCCCC" d="M599.587,193.888h-49.621c-1.324-0.174-2.256-1.39-2.081-2.714c0.143-1.084,0.996-1.939,2.081-2.082h49.621
	c1.324,0.175,2.256,1.39,2.081,2.714C601.525,192.891,600.672,193.745,599.587,193.888z"/>
<path fill="#CCCCCC" d="M311.953,115.238h-49.621c-1.324-0.174-2.256-1.39-2.082-2.714c0.143-1.085,0.997-1.939,2.082-2.082h49.621
	c1.324,0.174,2.257,1.39,2.082,2.714C313.892,114.241,313.037,115.095,311.953,115.238z"/>
<path fill="#CCCCCC" d="M436.216,417.667H262.963c-1.324-0.173-2.256-1.389-2.082-2.713c0.143-1.085,0.997-1.938,2.082-2.082
	h173.253c1.325,0.175,2.257,1.391,2.082,2.714C438.156,416.672,437.301,417.525,436.216,417.667L436.216,417.667z"/>
<path fill="#CCCCCC" d="M435.375,470.422H262.122c-1.324-0.176-2.257-1.39-2.082-2.714c0.142-1.086,0.997-1.939,2.082-2.083h173.253
	c1.324,0.175,2.255,1.39,2.081,2.714C437.313,469.424,436.46,470.278,435.375,470.422z"/>
<path fill="#CCCCCC" d="M435.795,496.798H262.543c-1.324-0.175-2.257-1.39-2.083-2.714c0.143-1.084,0.997-1.938,2.083-2.083h173.253
	c1.324,0.176,2.256,1.39,2.082,2.714c-0.144,1.086-0.997,1.939-2.082,2.083H435.795z"/>
<path fill="#CCCCCC" d="M509.807,470.901h-49.622c-1.324-0.175-2.257-1.39-2.082-2.714c0.143-1.086,0.996-1.939,2.082-2.081h49.622
	c1.324,0.173,2.255,1.389,2.081,2.714C511.745,469.904,510.891,470.758,509.807,470.901L509.807,470.901z"/>
<path fill="#CCCCCC" d="M509.807,496.798h-49.622c-1.324-0.175-2.257-1.39-2.082-2.714c0.143-1.084,0.996-1.938,2.082-2.083h49.622
	c1.324,0.176,2.255,1.39,2.081,2.714C511.745,495.801,510.891,496.654,509.807,496.798L509.807,496.798z"/>
<path fill="#CCCCCC" d="M593.069,470.901h-49.621c-1.324-0.175-2.256-1.39-2.082-2.714c0.143-1.086,0.997-1.939,2.082-2.081h49.621
	c1.324,0.173,2.256,1.389,2.081,2.714C595.008,469.904,594.154,470.758,593.069,470.901z"/>
<path fill="#CCCCCC" d="M625.869,444.045H353.373c-1.324-0.175-2.256-1.39-2.081-2.714c0.143-1.086,0.997-1.939,2.081-2.081h272.496
	c1.324,0.174,2.256,1.389,2.081,2.713C627.807,443.048,626.954,443.901,625.869,444.045z"/>
<path fill="#CCCCCC" d="M312.163,444.045h-49.62c-1.326-0.175-2.257-1.39-2.083-2.714c0.143-1.086,0.997-1.939,2.083-2.081h49.62
	c1.324,0.174,2.257,1.389,2.083,2.713C314.102,443.048,313.249,443.901,312.163,444.045z"/>
<polygon fill="#E6E6E6" points="394.376,236.974 327.091,303.416 394.376,369.858 409.514,354.719 358.631,303.836 409.933,252.533 
	"/>
<polygon fill="#E6E6E6" points="493.617,236.974 560.898,303.416 493.617,369.858 478.478,354.719 529.36,303.836 478.057,252.533 
	"/>
<polygon fill="#6C63FF" points="394.376,236.974 327.091,303.416 394.376,369.858 409.514,354.719 358.631,303.836 409.933,252.533 
	"/>
<polygon fill="#6C63FF" points="493.617,236.974 560.898,303.416 493.617,369.858 478.478,354.719 529.36,303.836 478.057,252.533 
	"/>
</svg>
