<?xml version="1.0" encoding="utf-8"?>
<!-- Generator: Adobe Illustrator 26.0.3, SVG Export Plug-In . SVG Version: 6.00 Build 0)  -->
<svg version="1.1" id="Layer_1" xmlns="http://www.w3.org/2000/svg" xmlns:xlink="http://www.w3.org/1999/xlink" x="0px" y="0px"
	 viewBox="0 0 90 90" style="enable-background:new 0 0 90 90;" xml:space="preserve">
<style type="text/css">
	.st0{fill:#36C0F8;}
	.st1{fill:#FFFFFF;}
	.st2{fill-rule:evenodd;clip-rule:evenodd;fill:#36C0F8;}
</style>
<path class="st0" d="M80.73,28.01c-0.09-3.87-0.18-8.28-0.18-13.13c0-2.07-1.35-3.96-3.33-4.5L46.46,0.66
	c-0.9-0.27-1.89-0.27-2.88,0l-30.77,9.72c-1.98,0.63-3.33,2.43-3.33,4.5c0,4.86-0.09,9.27-0.18,13.13
	c-0.36,14.48-0.54,24.11,4.41,34.19c8.1,16.37,21.95,23.93,29.42,26.99c0.54,0.27,1.17,0.36,1.8,0.36c0.63,0,1.17-0.09,1.8-0.36
	c7.56-3.06,21.41-10.53,29.51-26.99C81.27,52.12,81,42.49,80.73,28.01L80.73,28.01z"/>
<path class="st1" d="M46.53,38.6h-3.06c-0.96,0-1.92-0.44-2.53-1.13c-0.7-0.7-0.96-1.66-0.87-2.62c0.17-1.75,1.75-3.06,3.67-3.06
	h3.58c1.05,0,1.92,0.7,2.18,1.75c0.09,0.61,0.7,1.05,1.31,1.05h4.02c0.35,0,0.79-0.17,1.05-0.44c0.26-0.26,0.35-0.61,0.35-1.05
	c-0.44-4.19-3.67-7.42-7.77-7.94v-3.49c0-0.79-0.61-1.4-1.4-1.4h-4.02c-0.79,0-1.4,0.61-1.4,1.4v3.58c-5.15,0.96-8.82,5.67-8.29,11
	c0.52,5.15,5.15,9.16,10.56,9.16h2.62c0.96,0,1.92,0.44,2.53,1.13c0.7,0.7,0.96,1.66,0.87,2.62c-0.17,1.75-1.75,3.06-3.67,3.06
	h-3.58c-1.05,0-1.92-0.7-2.18-1.75c-0.17-0.61-0.7-1.05-1.31-1.05h-4.02c-0.35,0-0.79,0.17-1.05,0.44
	c-0.26,0.26-0.35,0.61-0.35,1.05c0.44,4.19,3.67,7.42,7.77,7.94v3.49c0,0.79,0.61,1.4,1.4,1.4h4.02c0.79,0,1.4-0.61,1.4-1.4v-3.67
	c4.45-0.96,7.85-4.54,8.29-8.9c0.26-2.88-0.61-5.67-2.62-7.85C52.12,39.82,49.41,38.6,46.53,38.6L46.53,38.6z"/>
</svg>
