<?xml version="1.0" encoding="utf-8"?>
<!-- Generator: Adobe Illustrator 26.0.3, SVG Export Plug-In . SVG Version: 6.00 Build 0)  -->
<svg version="1.1" id="Layer_1" xmlns="http://www.w3.org/2000/svg" xmlns:xlink="http://www.w3.org/1999/xlink" x="0px" y="0px"
	 viewBox="0 0 90 90" style="enable-background:new 0 0 90 90;" xml:space="preserve">
<style type="text/css">
	.st0{fill:#36C0F8;}
	.st1{fill:#FFFFFF;}
	.st2{fill-rule:evenodd;clip-rule:evenodd;fill:#36C0F8;}
</style>
<path class="st2" d="M45,87.5C21.53,87.5,2.5,68.47,2.5,45S21.53,2.5,45,2.5S87.5,21.53,87.5,45S68.47,87.5,45,87.5z M45,67.32
	l3.01-2.99c11.15-9.87,18.44-16.52,18.44-24.67c0-6.64-5.15-11.79-11.79-11.79c-3.66,0-7.3,1.72-9.66,4.5c-2.36-2.79-6-4.5-9.66-4.5
	c-6.64,0-11.79,5.15-11.79,11.79c0,8.16,7.29,14.81,18.44,24.67L45,67.32z"/>
</svg>
