<?xml version="1.0" encoding="utf-8"?>
<!-- Generator: Adobe Illustrator 26.0.3, SVG Export Plug-In . SVG Version: 6.00 Build 0)  -->
<svg version="1.1" id="Layer_1" xmlns="http://www.w3.org/2000/svg" xmlns:xlink="http://www.w3.org/1999/xlink" x="0px" y="0px"
	 viewBox="0 0 90 90" style="enable-background:new 0 0 90 90;" xml:space="preserve">
<style type="text/css">
	.st0{fill:#36C0F8;}
	.st1{fill:#FFFFFF;}
	.st2{fill-rule:evenodd;clip-rule:evenodd;fill:#36C0F8;}
</style>
<path class="st0" d="M69.48,4.21H20.52c-9.01,0-16.32,7.31-16.32,16.32v48.95c0,9.01,7.31,16.31,16.32,16.31h48.95
	c9.01,0,16.32-7.3,16.32-16.31V20.53C85.79,11.51,78.49,4.21,69.48,4.21z M38.39,51.63c-0.37,3.72-3.28,6.78-7.07,7.6v3.13
	c0,0.67-0.52,1.19-1.19,1.19H26.7c-0.67,0-1.19-0.52-1.19-1.19v-2.98c-3.5-0.45-6.26-3.2-6.63-6.78c0-0.37,0.07-0.67,0.3-0.89
	c0.22-0.22,0.6-0.37,0.89-0.37h3.43c0.52,0,0.97,0.37,1.12,0.89c0.22,0.89,0.97,1.49,1.86,1.49h3.05c1.64,0,2.98-1.12,3.13-2.61
	c0.07-0.82-0.15-1.64-0.74-2.23c-0.52-0.6-1.34-0.97-2.16-0.97h-2.23c-4.62,0-8.56-3.43-9.01-7.82c-0.45-4.54,2.68-8.56,7.07-9.38
	v-3.05c0-0.67,0.52-1.19,1.19-1.19h3.43c0.67,0,1.19,0.52,1.19,1.19v2.98c3.5,0.45,6.26,3.2,6.63,6.78c0,0.37-0.07,0.67-0.3,0.89
	s-0.6,0.37-0.89,0.37H33.4c-0.52,0-1.04-0.37-1.12-0.89c-0.22-0.89-0.97-1.49-1.86-1.49h-3.05c-1.64,0-2.98,1.12-3.13,2.61
	c-0.07,0.82,0.15,1.64,0.74,2.23c0.52,0.6,1.34,0.97,2.16,0.97h2.61l0,0c2.46,0,4.77,1.04,6.4,2.83
	C37.87,46.79,38.62,49.17,38.39,51.63z M46.4,53.34c-1.51,0-2.74-1.23-2.74-2.74c0-1.51,1.23-2.74,2.74-2.74
	c1.51,0,2.74,1.23,2.74,2.74C49.14,52.12,47.91,53.34,46.4,53.34z M46.4,44.22c-1.51,0-2.74-1.23-2.74-2.74s1.23-2.74,2.74-2.74
	c1.51,0,2.74,1.23,2.74,2.74S47.91,44.22,46.4,44.22z M73.5,51.63c-0.37,3.72-3.28,6.78-7.07,7.6v3.13c0,0.67-0.52,1.19-1.19,1.19
	h-3.43c-0.67,0-1.19-0.52-1.19-1.19v-2.98c-3.5-0.45-6.26-3.2-6.63-6.78c0-0.37,0.07-0.67,0.3-0.89c0.22-0.22,0.6-0.37,0.89-0.37
	h3.43c0.52,0,0.97,0.37,1.12,0.89c0.22,0.89,0.97,1.49,1.86,1.49h3.05c1.64,0,2.98-1.12,3.13-2.61c0.07-0.82-0.15-1.64-0.74-2.23
	c-0.52-0.6-1.34-0.97-2.16-0.97h-2.23c-4.62,0-8.56-3.43-9.01-7.82c-0.45-4.54,2.68-8.56,7.07-9.38v-3.05
	c0-0.67,0.52-1.19,1.19-1.19h3.43c0.67,0,1.19,0.52,1.19,1.19v2.98c3.5,0.45,6.26,3.2,6.63,6.78c0,0.37-0.07,0.67-0.3,0.89
	s-0.6,0.37-0.89,0.37h-3.43c-0.52,0-1.04-0.37-1.12-0.89c-0.22-0.89-0.97-1.49-1.86-1.49h-3.05c-1.64,0-2.98,1.12-3.13,2.61
	c-0.07,0.82,0.15,1.64,0.74,2.23c0.52,0.6,1.34,0.97,2.16,0.97h2.61l0,0c2.46,0,4.77,1.04,6.4,2.83
	C72.98,46.79,73.73,49.17,73.5,51.63z"/>
</svg>
