<?xml version="1.0" encoding="utf-8"?>
<!-- Generator: Adobe Illustrator 26.0.3, SVG Export Plug-In . SVG Version: 6.00 Build 0)  -->
<svg version="1.1" id="Layer_1" xmlns="http://www.w3.org/2000/svg" xmlns:xlink="http://www.w3.org/1999/xlink" x="0px" y="0px"
	 viewBox="0 0 90 90" style="enable-background:new 0 0 90 90;" xml:space="preserve">
<style type="text/css">
	.st0{fill:#36C0F8;}
	.st1{fill:#FFFFFF;}
	.st2{fill-rule:evenodd;clip-rule:evenodd;fill:#36C0F8;}
</style>
<g>
	<path id="Path_240_00000096030041609051549630000015752331618422304658_" class="st0" d="M45,2.5C21.53,2.5,2.5,21.53,2.5,45
		S21.53,87.5,45,87.5S87.5,68.47,87.5,45l0,0C87.5,21.53,68.47,2.5,45,2.5z M66.74,59.01c-0.84,1.31-2.58,1.7-3.9,0.86L43.48,47.53
		c-0.83-0.53-1.32-1.46-1.3-2.44c0,0,0-0.06,0-0.1V21.2c0-1.56,1.27-2.83,2.83-2.83c1.56,0,2.83,1.27,2.83,2.83v22.39l18,11.5
		c1.33,0.82,1.74,2.57,0.91,3.9C66.75,58.99,66.75,59,66.74,59.01z"/>
</g>
</svg>
