<?xml version="1.0" encoding="utf-8"?>
<!-- Generator: Adobe Illustrator 26.0.3, SVG Export Plug-In . SVG Version: 6.00 Build 0)  -->
<svg version="1.1" id="Layer_1" xmlns="http://www.w3.org/2000/svg" xmlns:xlink="http://www.w3.org/1999/xlink" x="0px" y="0px"
	 viewBox="0 0 90 90" style="enable-background:new 0 0 90 90;" xml:space="preserve">
<style type="text/css">
	.st0{fill:#36C0F8;}
	.st1{fill:#FFFFFF;}
	.st2{fill-rule:evenodd;clip-rule:evenodd;fill:#36C0F8;}
</style>
<path class="st0" d="M83.48,30.74l-21.25,0c-2.43,0-4.58-1.56-5.33-3.87L50.33,6.66c-1.68-5.17-8.98-5.17-10.66,0L33.1,26.87
	c-0.75,2.31-2.9,3.87-5.33,3.87l-21.25,0c-5.43,0-7.68,6.95-3.29,10.14l0,0l17.19,12.49c1.96,1.43,2.79,3.95,2.04,6.26l-6.57,20.21
	c-1.68,5.16,4.23,9.46,8.63,6.27l17.19-12.49c1.96-1.43,4.62-1.43,6.59,0l17.19,12.49c4.39,3.19,10.3-1.1,8.63-6.27l-6.57-20.21
	c-0.75-2.31,0.07-4.84,2.04-6.26l17.19-12.49C91.16,37.69,88.91,30.74,83.48,30.74z M53.89,54.47c-0.33,3.33-2.93,6.06-6.32,6.79
	v2.8c0,0.6-0.47,1.07-1.07,1.07h-3.06c-0.6,0-1.07-0.47-1.07-1.07V61.4c-3.13-0.4-5.59-2.86-5.92-6.06c0-0.33,0.07-0.6,0.27-0.8
	c0.2-0.2,0.53-0.33,0.8-0.33h3.06c0.47,0,0.86,0.33,1,0.8c0.2,0.8,0.87,1.33,1.66,1.33h2.73c1.46,0,2.66-1,2.8-2.33
	c0.07-0.73-0.13-1.46-0.67-2c-0.47-0.53-1.2-0.87-1.93-0.87h-2c-4.13,0-7.65-3.06-8.05-6.99c-0.4-4.06,2.4-7.65,6.32-8.39v-2.73
	c0-0.6,0.47-1.06,1.07-1.06h3.06c0.6,0,1.07,0.47,1.07,1.06v2.66c3.13,0.4,5.59,2.86,5.92,6.06c0,0.33-0.07,0.6-0.27,0.8
	c-0.2,0.2-0.53,0.33-0.8,0.33h-3.06c-0.47,0-0.93-0.33-1-0.8c-0.2-0.8-0.87-1.33-1.66-1.33h-2.73c-1.46,0-2.66,1-2.8,2.33
	c-0.07,0.73,0.13,1.46,0.67,2c0.47,0.53,1.2,0.87,1.93,0.87h2.33v0c2.2,0,4.26,0.93,5.72,2.53C53.42,50.15,54.09,52.28,53.89,54.47z
	"/>
</svg>
