<?xml version="1.0" encoding="utf-8"?>
<!-- Generator: Adobe Illustrator 26.0.3, SVG Export Plug-In . SVG Version: 6.00 Build 0)  -->
<svg version="1.1" id="Layer_1" xmlns="http://www.w3.org/2000/svg" xmlns:xlink="http://www.w3.org/1999/xlink" x="0px" y="0px"
	 viewBox="0 0 90 90" style="enable-background:new 0 0 90 90;" xml:space="preserve">
<style type="text/css">
	.st0{fill:#36C0F8;}
	.st1{fill:#FFFFFF;}
	.st2{fill-rule:evenodd;clip-rule:evenodd;fill:#36C0F8;}
</style>
<g>
	<path class="st0" d="M45,2.5C21.62,2.5,2.5,21.62,2.5,45S21.62,87.5,45,87.5S87.5,68.38,87.5,45S68.38,2.5,45,2.5z M68.66,47.27
		l-9.08,9.08c-1.3,1.3-3.24,1.3-4.54,0s-1.3-3.24,0-4.54l3.57-3.57H31.38l3.57,3.57c1.3,1.3,1.3,3.24,0,4.54s-3.24,1.3-4.54,0
		l-9.08-9.08c-1.3-1.3-1.3-3.24,0-4.54l9.08-9.08c1.3-1.3,3.24-1.3,4.54,0s1.3,3.24,0,4.54l-3.57,3.57h26.9l-3.57-3.57
		c-1.3-1.3-1.3-3.24,0-4.54c1.3-1.3,3.24-1.3,4.54,0l9.08,9.08c0.32,0.32,0.65,0.65,0.65,0.97C69.96,45,69.63,46.3,68.66,47.27z"/>
</g>
</svg>
